<svg width="48" height="48" viewBox="0 0 48 48" fill="none" xmlns="http://www.w3.org/2000/svg">
<rect x="1.5" y="1.5" width="45" height="45" rx="22.5" fill="white" fill-opacity="0.66"/>
<path d="M32.9972 29.9966C32.4613 30.0108 31.9391 30.1688 31.4853 30.454L28.1675 27.2221C28.8439 26.368 29.2325 25.3217 29.2774 24.2332L31.6323 23.9977C31.8322 24.5015 32.2085 24.9154 32.691 25.1624C33.1735 25.4094 33.7294 25.4727 34.255 25.3404C34.7807 25.2081 35.2404 24.8892 35.5484 24.4433C35.8565 23.9973 35.9919 23.4546 35.9295 22.9162C35.8671 22.3778 35.6111 21.8804 35.2092 21.5167C34.8073 21.1529 34.2869 20.9477 33.7449 20.9391C33.2029 20.9305 32.6763 21.1192 32.2631 21.47C31.8498 21.8208 31.5782 22.3098 31.4988 22.8459L29.1124 23.0379C28.9533 22.2176 28.6013 21.4469 28.0854 20.7894C27.5695 20.132 26.9046 19.6068 26.1456 19.2571L26.6076 17.9988H26.9976C27.7247 17.9934 28.4251 17.724 28.9685 17.2408C29.5119 16.7576 29.8613 16.0935 29.9516 15.372C30.0419 14.6506 29.8671 13.9209 29.4596 13.3187C29.0521 12.7164 28.4397 12.2827 27.7363 12.0982C27.033 11.9137 26.2865 11.9909 25.6358 12.3155C24.9851 12.6401 24.4745 13.19 24.1989 13.8629C23.9234 14.5357 23.9016 15.2858 24.1378 15.9735C24.3739 16.6612 24.8518 17.2397 25.4827 17.6014L25.0777 18.8837C24.7068 18.7985 24.3273 18.7562 23.9468 18.7577C22.7018 18.7577 21.5619 19.2016 20.6755 19.941L16.1847 15.4358C16.4466 15.0131 16.561 14.5156 16.5102 14.0211C16.4593 13.5265 16.2461 13.0627 15.9037 12.7022C15.5613 12.3416 15.1091 12.1046 14.6178 12.0283C14.1264 11.9519 13.6236 12.0404 13.1879 12.28C12.7522 12.5196 12.4082 12.8967 12.2096 13.3525C12.0109 13.8083 11.9689 14.317 12.0901 14.7992C12.2112 15.2814 12.4887 15.7099 12.8792 16.0177C13.2697 16.3255 13.7512 16.4953 14.2484 16.5006C14.6698 16.4991 15.0643 16.3821 15.3988 16.1796L19.888 20.6848C19.1473 21.6063 18.7449 22.754 18.7481 23.9362V24.2407L17.7581 24.4056C17.466 23.7223 16.9305 23.1717 16.2555 22.8607C15.5805 22.5496 14.8141 22.5001 14.1047 22.7219C13.3953 22.9436 12.7935 23.4208 12.4159 24.0609C12.0383 24.7011 11.9119 25.4585 12.061 26.1866C12.2102 26.9146 12.6243 27.5614 13.2232 28.0015C13.8221 28.4416 14.563 28.6438 15.3025 28.5688C16.0419 28.4938 16.7272 28.1471 17.2255 27.5957C17.7238 27.0443 17.9997 26.3276 17.9996 25.5844L17.9981 25.4959L18.9431 25.3505C19.2907 26.5793 20.0719 27.6406 21.1419 28.3379L20.308 30.1196C20.0455 30.0419 19.7733 30.0015 19.4995 29.9996H19.474C18.7642 29.9999 18.0775 30.2519 17.536 30.7108C16.9945 31.1696 16.6333 31.8056 16.5165 32.5056C16.3997 33.2057 16.535 33.9244 16.8983 34.5342C17.2616 35.1439 17.8293 35.6051 18.5006 35.8357C19.1719 36.0663 19.9032 36.0515 20.5646 35.7938C21.2259 35.5362 21.7745 35.0523 22.1127 34.4284C22.451 33.8044 22.557 33.0808 22.4119 32.386C22.2669 31.6913 21.8801 31.0705 21.3204 30.634L22.1694 28.9048C22.7153 29.1238 23.3498 29.2512 24.0128 29.2512C25.2832 29.2512 26.4441 28.7848 27.3365 28.0155L30.6003 31.2009C30.1949 31.7414 29.9838 32.403 30.0014 33.0785C30.0189 33.7539 30.2641 34.4037 30.6971 34.9224C31.1301 35.4412 31.7256 35.7986 32.3871 35.9367C33.0486 36.0748 33.7373 35.9855 34.3417 35.6833C34.9462 35.3812 35.4308 34.8838 35.7173 34.2718C36.0037 33.6598 36.075 32.969 35.9197 32.3114C35.7645 31.6538 35.3917 31.0679 34.8618 30.6486C34.3319 30.2292 33.676 30.0011 33.0002 30.0011L32.9972 29.9966ZM19.498 34.4958C19.1002 34.4958 18.7187 34.3378 18.4374 34.0565C18.1562 33.7753 17.9981 33.3938 17.9981 32.996C17.9981 32.5983 18.1562 32.2168 18.4374 31.9356C18.7187 31.6543 19.1002 31.4963 19.498 31.4963C19.8958 31.4963 20.2773 31.6543 20.5586 31.9356C20.8399 32.2168 20.9979 32.5983 20.9979 32.996C20.9979 33.3938 20.8399 33.7753 20.5586 34.0565C20.2773 34.3378 19.8958 34.4958 19.498 34.4958ZM23.9978 27.747C23.0033 27.747 22.0495 27.352 21.3463 26.6489C20.6431 25.9457 20.248 24.9921 20.248 23.9977C20.248 23.0033 20.6431 22.0497 21.3463 21.3465C22.0495 20.6434 23.0033 20.2484 23.9978 20.2484C24.9923 20.2484 25.946 20.6434 26.6492 21.3465C27.3525 22.0497 27.7475 23.0033 27.7475 23.9977C27.7475 24.9921 27.3525 25.9457 26.6492 26.6489C25.946 27.352 24.9923 27.747 23.9978 27.747Z" fill="#3E5090"/>
<rect x="1.5" y="1.5" width="45" height="45" rx="22.5" stroke="#3E5090" stroke-width="3"/>
</svg>
