<svg width="876" height="482" viewBox="0 0 876 482" fill="none" xmlns="http://www.w3.org/2000/svg">
<g clip-path="url(#clip0_945_31819)">
<rect width="876" height="482" fill="white"/>
<g clip-path="url(#clip1_945_31819)">
<path d="M125.143 0V482" stroke="#E7E7E7" stroke-dasharray="2 2"/>
<path d="M250.286 0V482" stroke="#E7E7E7" stroke-dasharray="2 2"/>
<path d="M375.429 0V482" stroke="#E7E7E7" stroke-dasharray="2 2"/>
<path d="M500.572 0V482" stroke="#E7E7E7" stroke-dasharray="2 2"/>
<path d="M625.714 0V482" stroke="#E7E7E7" stroke-dasharray="2 2"/>
<path d="M750.857 0V482" stroke="#E7E7E7" stroke-dasharray="2 2"/>
<path d="M0 48.2L876 48.2" stroke="#E7E7E7" stroke-dasharray="2 2"/>
<path d="M0 96.4L876 96.4" stroke="#E7E7E7" stroke-dasharray="2 2"/>
<path d="M0 144.6L876 144.6" stroke="#E7E7E7" stroke-dasharray="2 2"/>
<path d="M0 192.8L876 192.8" stroke="#E7E7E7" stroke-dasharray="2 2"/>
<path d="M0 241L876 241" stroke="#E7E7E7" stroke-dasharray="2 2"/>
<path d="M0 289.2L876 289.2" stroke="#E7E7E7" stroke-dasharray="2 2"/>
<path d="M0 337.4L876 337.4" stroke="#E7E7E7" stroke-dasharray="2 2"/>
<path d="M0 385.6L876 385.6" stroke="#E7E7E7" stroke-dasharray="2 2"/>
<path d="M0 433.8L876 433.8" stroke="#E7E7E7" stroke-dasharray="2 2"/>
<path d="M0 482L876 482" stroke="#E7E7E7" stroke-dasharray="2 2"/>
<path d="M32 233C32 229.686 34.6863 227 38 227H87C90.3137 227 93 229.686 93 233V482H32V233Z" fill="#3C8643" fill-opacity="0.7"/>
<path d="M157 233C157 229.686 159.686 227 163 227H212C215.314 227 218 229.686 218 233V482H157V233Z" fill="#3C8643" fill-opacity="0.7"/>
<path d="M282 233C282 229.686 284.686 227 288 227H337C340.314 227 343 229.686 343 233V482H282V233Z" fill="#3C8643" fill-opacity="0.7"/>
<path d="M407 114C407 110.686 409.686 108 413 108H462C465.314 108 468 110.686 468 114V482H407V114Z" fill="#3C8643" fill-opacity="0.7"/>
<path d="M532 114C532 110.686 534.686 108 538 108H587C590.314 108 593 110.686 593 114V482H532V114Z" fill="#3C8643" fill-opacity="0.7"/>
<path d="M657 114C657 110.686 659.686 108 663 108H712C715.314 108 718 110.686 718 114V482H657V114Z" fill="#3C8643" fill-opacity="0.7"/>
<path d="M782 34C782 30.6863 784.686 28 788 28H837C840.314 28 843 30.6863 843 34V482H782V34Z" fill="#3C8643" fill-opacity="0.7"/>
<path d="M9.77393 13.1836V14H4.65527V13.2856L7.21729 10.4336C7.53239 10.0827 7.77588 9.78548 7.94775 9.54199C8.12321 9.29492 8.24495 9.07471 8.31299 8.88135C8.3846 8.68441 8.42041 8.48389 8.42041 8.27979C8.42041 8.02197 8.3667 7.78923 8.25928 7.58154C8.15544 7.37028 8.00146 7.20199 7.79736 7.07666C7.59326 6.95133 7.34619 6.88867 7.05615 6.88867C6.70882 6.88867 6.41878 6.95671 6.18604 7.09277C5.95687 7.22526 5.78499 7.41146 5.67041 7.65137C5.55583 7.89128 5.49854 8.16699 5.49854 8.47852H4.50488C4.50488 8.03809 4.60156 7.63525 4.79492 7.27002C4.98828 6.90479 5.27474 6.61475 5.6543 6.3999C6.03385 6.18148 6.50114 6.07227 7.05615 6.07227C7.55029 6.07227 7.97282 6.15999 8.32373 6.33545C8.67464 6.50732 8.9432 6.75081 9.12939 7.06592C9.31917 7.37744 9.41406 7.74268 9.41406 8.16162C9.41406 8.39079 9.37467 8.62354 9.2959 8.85986C9.2207 9.09261 9.11507 9.32536 8.979 9.55811C8.84652 9.79085 8.69076 10.02 8.51172 10.2456C8.33626 10.4712 8.14827 10.6932 7.94775 10.9116L5.85303 13.1836H9.77393ZM14.7509 6.16895H14.8368V7.01221H14.7509C14.2245 7.01221 13.7841 7.09814 13.4296 7.27002C13.0751 7.43831 12.794 7.66569 12.5863 7.95215C12.3786 8.23503 12.2283 8.55371 12.1352 8.9082C12.0456 9.2627 12.0009 9.62256 12.0009 9.98779V11.1372C12.0009 11.4845 12.0421 11.7925 12.1244 12.061C12.2068 12.326 12.3196 12.5498 12.4628 12.7324C12.606 12.915 12.7672 13.0529 12.9462 13.146C13.1288 13.2391 13.3186 13.2856 13.5155 13.2856C13.7447 13.2856 13.9488 13.2427 14.1278 13.1567C14.3069 13.0672 14.4573 12.9437 14.579 12.7861C14.7043 12.625 14.7992 12.4352 14.8637 12.2168C14.9281 11.9984 14.9604 11.7585 14.9604 11.4971C14.9604 11.2643 14.9317 11.0405 14.8744 10.8257C14.8171 10.6073 14.7294 10.4139 14.6112 10.2456C14.4931 10.0737 14.3445 9.93945 14.1654 9.84277C13.99 9.74251 13.7805 9.69238 13.537 9.69238C13.2613 9.69238 13.0035 9.76042 12.7636 9.89648C12.5272 10.029 12.3321 10.2044 12.1781 10.4229C12.0277 10.6377 11.9418 10.8722 11.9203 11.1265L11.3939 11.1211C11.4441 10.7201 11.5372 10.3781 11.6732 10.0952C11.8129 9.80876 11.9848 9.57601 12.1889 9.39697C12.3965 9.21436 12.6275 9.08187 12.8817 8.99951C13.1396 8.91357 13.4117 8.87061 13.6981 8.87061C14.0884 8.87061 14.425 8.94401 14.7079 9.09082C14.9908 9.23763 15.2235 9.43457 15.4062 9.68164C15.5888 9.92513 15.723 10.2008 15.809 10.5088C15.8985 10.8132 15.9433 11.1265 15.9433 11.4487C15.9433 11.8175 15.8913 12.1631 15.7875 12.4854C15.6837 12.8076 15.5279 13.0905 15.3202 13.334C15.1161 13.5775 14.8637 13.7673 14.5629 13.9033C14.2621 14.0394 13.913 14.1074 13.5155 14.1074C13.093 14.1074 12.7242 14.0215 12.4091 13.8496C12.094 13.6742 11.8326 13.4414 11.6249 13.1514C11.4172 12.8613 11.2615 12.5391 11.1576 12.1846C11.0538 11.8301 11.0019 11.4702 11.0019 11.105V10.6377C11.0019 10.0863 11.0574 9.54557 11.1684 9.01562C11.2794 8.48568 11.4709 8.00586 11.7431 7.57617C12.0188 7.14648 12.4001 6.80452 12.8871 6.55029C13.3741 6.29606 13.9953 6.16895 14.7509 6.16895ZM17.3484 13.4736C17.3484 13.3053 17.4004 13.1639 17.5042 13.0493C17.6116 12.9312 17.7656 12.8721 17.9661 12.8721C18.1666 12.8721 18.3188 12.9312 18.4227 13.0493C18.5301 13.1639 18.5838 13.3053 18.5838 13.4736C18.5838 13.6383 18.5301 13.778 18.4227 13.8926C18.3188 14.0072 18.1666 14.0645 17.9661 14.0645C17.7656 14.0645 17.6116 14.0072 17.5042 13.8926C17.4004 13.778 17.3484 13.6383 17.3484 13.4736ZM25.1345 9.4668V10.6592C25.1345 11.3001 25.0772 11.8408 24.9626 12.2812C24.848 12.7217 24.6833 13.0762 24.4685 13.3447C24.2536 13.6133 23.994 13.8084 23.6896 13.9302C23.3889 14.0483 23.0487 14.1074 22.6691 14.1074C22.3684 14.1074 22.0909 14.0698 21.8366 13.9946C21.5824 13.9194 21.3532 13.7995 21.1491 13.6348C20.9486 13.4665 20.7767 13.248 20.6335 12.9795C20.4903 12.7109 20.3811 12.3851 20.3059 12.002C20.2307 11.6188 20.1931 11.1712 20.1931 10.6592V9.4668C20.1931 8.82585 20.2504 8.28874 20.3649 7.85547C20.4831 7.4222 20.6496 7.07487 20.8645 6.81348C21.0793 6.5485 21.3371 6.35872 21.6379 6.24414C21.9423 6.12956 22.2824 6.07227 22.6584 6.07227C22.9628 6.07227 23.2421 6.10986 23.4963 6.18506C23.7541 6.25667 23.9833 6.37305 24.1838 6.53418C24.3843 6.69173 24.5544 6.90299 24.694 7.16797C24.8373 7.42936 24.9465 7.74984 25.0217 8.12939C25.0969 8.50895 25.1345 8.95475 25.1345 9.4668ZM24.1354 10.8203V9.30029C24.1354 8.94938 24.114 8.64144 24.071 8.37646C24.0316 8.10791 23.9725 7.87874 23.8938 7.68896C23.815 7.49919 23.7147 7.34521 23.593 7.22705C23.4748 7.10889 23.3369 7.02295 23.1794 6.96924C23.0254 6.91195 22.8518 6.8833 22.6584 6.8833C22.4221 6.8833 22.2126 6.92806 22.03 7.01758C21.8474 7.10352 21.6934 7.24137 21.5681 7.43115C21.4463 7.62093 21.3532 7.86979 21.2888 8.17773C21.2243 8.48568 21.1921 8.85986 21.1921 9.30029V10.8203C21.1921 11.1712 21.2118 11.481 21.2512 11.7495C21.2941 12.0181 21.3568 12.2508 21.4392 12.4478C21.5215 12.6411 21.6218 12.8005 21.7399 12.9258C21.8581 13.0511 21.9942 13.1442 22.1481 13.2051C22.3057 13.2624 22.4794 13.291 22.6691 13.291C22.9126 13.291 23.1257 13.2445 23.3083 13.1514C23.4909 13.0583 23.6431 12.9132 23.7648 12.7163C23.8902 12.5158 23.9833 12.2598 24.0441 11.9482C24.105 11.6331 24.1354 11.2572 24.1354 10.8203ZM30.3263 6.16895H30.4122V7.01221H30.3263C29.7999 7.01221 29.3595 7.09814 29.005 7.27002C28.6505 7.43831 28.3694 7.66569 28.1617 7.95215C27.954 8.23503 27.8036 8.55371 27.7105 8.9082C27.621 9.2627 27.5763 9.62256 27.5763 9.98779V11.1372C27.5763 11.4845 27.6174 11.7925 27.6998 12.061C27.7822 12.326 27.895 12.5498 28.0382 12.7324C28.1814 12.915 28.3425 13.0529 28.5216 13.146C28.7042 13.2391 28.894 13.2856 29.0909 13.2856C29.3201 13.2856 29.5242 13.2427 29.7032 13.1567C29.8823 13.0672 30.0326 12.9437 30.1544 12.7861C30.2797 12.625 30.3746 12.4352 30.4391 12.2168C30.5035 11.9984 30.5357 11.7585 30.5357 11.4971C30.5357 11.2643 30.5071 11.0405 30.4498 10.8257C30.3925 10.6073 30.3048 10.4139 30.1866 10.2456C30.0685 10.0737 29.9199 9.93945 29.7408 9.84277C29.5654 9.74251 29.3559 9.69238 29.1124 9.69238C28.8367 9.69238 28.5789 9.76042 28.339 9.89648C28.1026 10.029 27.9075 10.2044 27.7535 10.4229C27.6031 10.6377 27.5172 10.8722 27.4957 11.1265L26.9693 11.1211C27.0195 10.7201 27.1126 10.3781 27.2486 10.0952C27.3883 9.80876 27.5602 9.57601 27.7643 9.39697C27.9719 9.21436 28.2029 9.08187 28.4571 8.99951C28.7149 8.91357 28.9871 8.87061 29.2735 8.87061C29.6638 8.87061 30.0004 8.94401 30.2833 9.09082C30.5662 9.23763 30.7989 9.43457 30.9815 9.68164C31.1642 9.92513 31.2984 10.2008 31.3844 10.5088C31.4739 10.8132 31.5187 11.1265 31.5187 11.4487C31.5187 11.8175 31.4667 12.1631 31.3629 12.4854C31.259 12.8076 31.1033 13.0905 30.8956 13.334C30.6915 13.5775 30.4391 13.7673 30.1383 13.9033C29.8375 14.0394 29.4884 14.1074 29.0909 14.1074C28.6684 14.1074 28.2996 14.0215 27.9845 13.8496C27.6694 13.6742 27.408 13.4414 27.2003 13.1514C26.9926 12.8613 26.8368 12.5391 26.733 12.1846C26.6292 11.8301 26.5772 11.4702 26.5772 11.105V10.6377C26.5772 10.0863 26.6327 9.54557 26.7437 9.01562C26.8548 8.48568 27.0463 8.00586 27.3185 7.57617C27.5942 7.14648 27.9755 6.80452 28.4625 6.55029C28.9495 6.29606 29.5707 6.16895 30.3263 6.16895ZM32.9238 13.4736C32.9238 13.3053 32.9757 13.1639 33.0796 13.0493C33.187 12.9312 33.341 12.8721 33.5415 12.8721C33.742 12.8721 33.8942 12.9312 33.998 13.0493C34.1055 13.1639 34.1592 13.3053 34.1592 13.4736C34.1592 13.6383 34.1055 13.778 33.998 13.8926C33.8942 14.0072 33.742 14.0645 33.5415 14.0645C33.341 14.0645 33.187 14.0072 33.0796 13.8926C32.9757 13.778 32.9238 13.6383 32.9238 13.4736ZM40.9247 13.1836V14H35.8061V13.2856L38.3681 10.4336C38.6832 10.0827 38.9267 9.78548 39.0985 9.54199C39.274 9.29492 39.3957 9.07471 39.4638 8.88135C39.5354 8.68441 39.5712 8.48389 39.5712 8.27979C39.5712 8.02197 39.5175 7.78923 39.4101 7.58154C39.3062 7.37028 39.1522 7.20199 38.9481 7.07666C38.744 6.95133 38.497 6.88867 38.2069 6.88867C37.8596 6.88867 37.5696 6.95671 37.3368 7.09277C37.1077 7.22526 36.9358 7.41146 36.8212 7.65137C36.7066 7.89128 36.6493 8.16699 36.6493 8.47852H35.6557C35.6557 8.03809 35.7523 7.63525 35.9457 7.27002C36.1391 6.90479 36.4255 6.61475 36.8051 6.3999C37.1846 6.18148 37.6519 6.07227 38.2069 6.07227C38.7011 6.07227 39.1236 6.15999 39.4745 6.33545C39.8254 6.50732 40.094 6.75081 40.2802 7.06592C40.47 7.37744 40.5648 7.74268 40.5648 8.16162C40.5648 8.39079 40.5255 8.62354 40.4467 8.85986C40.3715 9.09261 40.2659 9.32536 40.1298 9.55811C39.9973 9.79085 39.8415 10.02 39.6625 10.2456C39.487 10.4712 39.2991 10.6932 39.0985 10.9116L37.0038 13.1836H40.9247ZM46.9974 9.4668V10.6592C46.9974 11.3001 46.9401 11.8408 46.8255 12.2812C46.7109 12.7217 46.5462 13.0762 46.3313 13.3447C46.1165 13.6133 45.8569 13.8084 45.5525 13.9302C45.2518 14.0483 44.9116 14.1074 44.532 14.1074C44.2313 14.1074 43.9537 14.0698 43.6995 13.9946C43.4453 13.9194 43.2161 13.7995 43.012 13.6348C42.8115 13.4665 42.6396 13.248 42.4964 12.9795C42.3532 12.7109 42.2439 12.3851 42.1688 12.002C42.0936 11.6188 42.056 11.1712 42.056 10.6592V9.4668C42.056 8.82585 42.1132 8.28874 42.2278 7.85547C42.346 7.4222 42.5125 7.07487 42.7273 6.81348C42.9422 6.5485 43.2 6.35872 43.5008 6.24414C43.8051 6.12956 44.1453 6.07227 44.5213 6.07227C44.8257 6.07227 45.1049 6.10986 45.3592 6.18506C45.617 6.25667 45.8462 6.37305 46.0467 6.53418C46.2472 6.69173 46.4173 6.90299 46.5569 7.16797C46.7002 7.42936 46.8094 7.74984 46.8846 8.12939C46.9598 8.50895 46.9974 8.95475 46.9974 9.4668ZM45.9983 10.8203V9.30029C45.9983 8.94938 45.9769 8.64144 45.9339 8.37646C45.8945 8.10791 45.8354 7.87874 45.7566 7.68896C45.6779 7.49919 45.5776 7.34521 45.4559 7.22705C45.3377 7.10889 45.1998 7.02295 45.0423 6.96924C44.8883 6.91195 44.7146 6.8833 44.5213 6.8833C44.285 6.8833 44.0755 6.92806 43.8929 7.01758C43.7103 7.10352 43.5563 7.24137 43.431 7.43115C43.3092 7.62093 43.2161 7.86979 43.1517 8.17773C43.0872 8.48568 43.055 8.85986 43.055 9.30029V10.8203C43.055 11.1712 43.0747 11.481 43.1141 11.7495C43.157 12.0181 43.2197 12.2508 43.3021 12.4478C43.3844 12.6411 43.4847 12.8005 43.6028 12.9258C43.721 13.0511 43.8571 13.1442 44.011 13.2051C44.1686 13.2624 44.3423 13.291 44.532 13.291C44.7755 13.291 44.9886 13.2445 45.1712 13.1514C45.3538 13.0583 45.506 12.9132 45.6277 12.7163C45.7531 12.5158 45.8462 12.2598 45.907 11.9482C45.9679 11.6331 45.9983 11.2572 45.9983 10.8203ZM53.4997 13.1836V14H48.3811V13.2856L50.9431 10.4336C51.2582 10.0827 51.5017 9.78548 51.6735 9.54199C51.849 9.29492 51.9707 9.07471 52.0388 8.88135C52.1104 8.68441 52.1462 8.48389 52.1462 8.27979C52.1462 8.02197 52.0925 7.78923 51.9851 7.58154C51.8812 7.37028 51.7272 7.20199 51.5231 7.07666C51.319 6.95133 51.072 6.88867 50.7819 6.88867C50.4346 6.88867 50.1446 6.95671 49.9118 7.09277C49.6826 7.22526 49.5108 7.41146 49.3962 7.65137C49.2816 7.89128 49.2243 8.16699 49.2243 8.47852H48.2307C48.2307 8.03809 48.3273 7.63525 48.5207 7.27002C48.7141 6.90479 49.0005 6.61475 49.3801 6.3999C49.7596 6.18148 50.2269 6.07227 50.7819 6.07227C51.2761 6.07227 51.6986 6.15999 52.0495 6.33545C52.4004 6.50732 52.669 6.75081 52.8552 7.06592C53.045 7.37744 53.1398 7.74268 53.1398 8.16162C53.1398 8.39079 53.1005 8.62354 53.0217 8.85986C52.9465 9.09261 52.8409 9.32536 52.7048 9.55811C52.5723 9.79085 52.4165 10.02 52.2375 10.2456C52.062 10.4712 51.8741 10.6932 51.6735 10.9116L49.5788 13.1836H53.4997ZM56.1134 9.60107H56.8224C57.1697 9.60107 57.4562 9.54378 57.6817 9.4292C57.9109 9.31104 58.081 9.15169 58.192 8.95117C58.3066 8.74707 58.3639 8.5179 58.3639 8.26367C58.3639 7.96289 58.3137 7.71045 58.2135 7.50635C58.1132 7.30225 57.9628 7.14827 57.7623 7.04443C57.5618 6.94059 57.3076 6.88867 56.9996 6.88867C56.7203 6.88867 56.4732 6.94417 56.2584 7.05518C56.0471 7.1626 55.8806 7.31657 55.7589 7.51709C55.6407 7.71761 55.5816 7.95394 55.5816 8.22607H54.588C54.588 7.82861 54.6883 7.46696 54.8888 7.14111C55.0893 6.81527 55.3704 6.55566 55.732 6.3623C56.0973 6.16895 56.5198 6.07227 56.9996 6.07227C57.4723 6.07227 57.8858 6.15641 58.2403 6.32471C58.5948 6.48942 58.8705 6.73649 59.0675 7.06592C59.2644 7.39176 59.3629 7.79818 59.3629 8.28516C59.3629 8.4821 59.3163 8.69336 59.2232 8.91895C59.1337 9.14095 58.9923 9.34863 58.7989 9.54199C58.6091 9.73535 58.3621 9.89469 58.0577 10.02C57.7534 10.1418 57.3881 10.2026 56.962 10.2026H56.1134V9.60107ZM56.1134 10.4175V9.82129H56.962C57.4597 9.82129 57.8715 9.88037 58.1974 9.99854C58.5232 10.1167 58.7792 10.2743 58.9654 10.4712C59.1552 10.6681 59.2877 10.8848 59.3629 11.1211C59.4417 11.3538 59.4811 11.5866 59.4811 11.8193C59.4811 12.1846 59.4184 12.5086 59.2931 12.7915C59.1713 13.0744 58.9977 13.3143 58.7721 13.5112C58.5501 13.7082 58.2887 13.8568 57.9879 13.957C57.6871 14.0573 57.3595 14.1074 57.005 14.1074C56.6648 14.1074 56.3443 14.0591 56.0436 13.9624C55.7464 13.8657 55.4832 13.7261 55.254 13.5435C55.0248 13.3573 54.8458 13.1299 54.7169 12.8613C54.588 12.5892 54.5235 12.2795 54.5235 11.9321H55.5172C55.5172 12.2043 55.5763 12.4424 55.6944 12.6465C55.8162 12.8506 55.9881 13.0099 56.2101 13.1245C56.4356 13.2355 56.7006 13.291 57.005 13.291C57.3093 13.291 57.5707 13.2391 57.7892 13.1353C58.0112 13.0278 58.1813 12.8667 58.2994 12.6519C58.4212 12.437 58.482 12.1667 58.482 11.8408C58.482 11.515 58.414 11.2482 58.2779 11.0405C58.1419 10.8293 57.9485 10.6735 57.6979 10.5732C57.4508 10.4694 57.159 10.4175 56.8224 10.4175H56.1134Z" fill="#8BB187"/>
<path d="M134.774 13.1836V14H129.655V13.2856L132.217 10.4336C132.532 10.0827 132.776 9.78548 132.948 9.54199C133.123 9.29492 133.245 9.07471 133.313 8.88135C133.385 8.68441 133.42 8.48389 133.42 8.27979C133.42 8.02197 133.367 7.78923 133.259 7.58154C133.155 7.37028 133.001 7.20199 132.797 7.07666C132.593 6.95133 132.346 6.88867 132.056 6.88867C131.709 6.88867 131.419 6.95671 131.186 7.09277C130.957 7.22526 130.785 7.41146 130.67 7.65137C130.556 7.89128 130.499 8.16699 130.499 8.47852H129.505C129.505 8.03809 129.602 7.63525 129.795 7.27002C129.988 6.90479 130.275 6.61475 130.654 6.3999C131.034 6.18148 131.501 6.07227 132.056 6.07227C132.55 6.07227 132.973 6.15999 133.324 6.33545C133.675 6.50732 133.943 6.75081 134.129 7.06592C134.319 7.37744 134.414 7.74268 134.414 8.16162C134.414 8.39079 134.375 8.62354 134.296 8.85986C134.221 9.09261 134.115 9.32536 133.979 9.55811C133.847 9.79085 133.691 10.02 133.512 10.2456C133.336 10.4712 133.148 10.6932 132.948 10.9116L130.853 13.1836H134.774ZM140.992 6.17969V6.73828L137.753 14H136.705L139.939 6.99609H135.706V6.17969H140.992ZM142.348 13.4736C142.348 13.3053 142.4 13.1639 142.504 13.0493C142.612 12.9312 142.766 12.8721 142.966 12.8721C143.167 12.8721 143.319 12.9312 143.423 13.0493C143.53 13.1639 143.584 13.3053 143.584 13.4736C143.584 13.6383 143.53 13.778 143.423 13.8926C143.319 14.0072 143.167 14.0645 142.966 14.0645C142.766 14.0645 142.612 14.0072 142.504 13.8926C142.4 13.778 142.348 13.6383 142.348 13.4736ZM150.134 9.4668V10.6592C150.134 11.3001 150.077 11.8408 149.963 12.2812C149.848 12.7217 149.683 13.0762 149.468 13.3447C149.254 13.6133 148.994 13.8084 148.69 13.9302C148.389 14.0483 148.049 14.1074 147.669 14.1074C147.368 14.1074 147.091 14.0698 146.837 13.9946C146.582 13.9194 146.353 13.7995 146.149 13.6348C145.949 13.4665 145.777 13.248 145.633 12.9795C145.49 12.7109 145.381 12.3851 145.306 12.002C145.231 11.6188 145.193 11.1712 145.193 10.6592V9.4668C145.193 8.82585 145.25 8.28874 145.365 7.85547C145.483 7.4222 145.65 7.07487 145.864 6.81348C146.079 6.5485 146.337 6.35872 146.638 6.24414C146.942 6.12956 147.282 6.07227 147.658 6.07227C147.963 6.07227 148.242 6.10986 148.496 6.18506C148.754 6.25667 148.983 6.37305 149.184 6.53418C149.384 6.69173 149.554 6.90299 149.694 7.16797C149.837 7.42936 149.946 7.74984 150.022 8.12939C150.097 8.50895 150.134 8.95475 150.134 9.4668ZM149.135 10.8203V9.30029C149.135 8.94938 149.114 8.64144 149.071 8.37646C149.032 8.10791 148.973 7.87874 148.894 7.68896C148.815 7.49919 148.715 7.34521 148.593 7.22705C148.475 7.10889 148.337 7.02295 148.179 6.96924C148.025 6.91195 147.852 6.8833 147.658 6.8833C147.422 6.8833 147.213 6.92806 147.03 7.01758C146.847 7.10352 146.693 7.24137 146.568 7.43115C146.446 7.62093 146.353 7.86979 146.289 8.17773C146.224 8.48568 146.192 8.85986 146.192 9.30029V10.8203C146.192 11.1712 146.212 11.481 146.251 11.7495C146.294 12.0181 146.357 12.2508 146.439 12.4478C146.522 12.6411 146.622 12.8005 146.74 12.9258C146.858 13.0511 146.994 13.1442 147.148 13.2051C147.306 13.2624 147.479 13.291 147.669 13.291C147.913 13.291 148.126 13.2445 148.308 13.1514C148.491 13.0583 148.643 12.9132 148.765 12.7163C148.89 12.5158 148.983 12.2598 149.044 11.9482C149.105 11.6331 149.135 11.2572 149.135 10.8203ZM155.326 6.16895H155.412V7.01221H155.326C154.8 7.01221 154.359 7.09814 154.005 7.27002C153.65 7.43831 153.369 7.66569 153.162 7.95215C152.954 8.23503 152.804 8.55371 152.711 8.9082C152.621 9.2627 152.576 9.62256 152.576 9.98779V11.1372C152.576 11.4845 152.617 11.7925 152.7 12.061C152.782 12.326 152.895 12.5498 153.038 12.7324C153.181 12.915 153.343 13.0529 153.522 13.146C153.704 13.2391 153.894 13.2856 154.091 13.2856C154.32 13.2856 154.524 13.2427 154.703 13.1567C154.882 13.0672 155.033 12.9437 155.154 12.7861C155.28 12.625 155.375 12.4352 155.439 12.2168C155.504 11.9984 155.536 11.7585 155.536 11.4971C155.536 11.2643 155.507 11.0405 155.45 10.8257C155.393 10.6073 155.305 10.4139 155.187 10.2456C155.068 10.0737 154.92 9.93945 154.741 9.84277C154.565 9.74251 154.356 9.69238 154.112 9.69238C153.837 9.69238 153.579 9.76042 153.339 9.89648C153.103 10.029 152.907 10.2044 152.754 10.4229C152.603 10.6377 152.517 10.8722 152.496 11.1265L151.969 11.1211C152.019 10.7201 152.113 10.3781 152.249 10.0952C152.388 9.80876 152.56 9.57601 152.764 9.39697C152.972 9.21436 153.203 9.08187 153.457 8.99951C153.715 8.91357 153.987 8.87061 154.274 8.87061C154.664 8.87061 155 8.94401 155.283 9.09082C155.566 9.23763 155.799 9.43457 155.982 9.68164C156.164 9.92513 156.298 10.2008 156.384 10.5088C156.474 10.8132 156.519 11.1265 156.519 11.4487C156.519 11.8175 156.467 12.1631 156.363 12.4854C156.259 12.8076 156.103 13.0905 155.896 13.334C155.692 13.5775 155.439 13.7673 155.138 13.9033C154.837 14.0394 154.488 14.1074 154.091 14.1074C153.668 14.1074 153.3 14.0215 152.984 13.8496C152.669 13.6742 152.408 13.4414 152.2 13.1514C151.993 12.8613 151.837 12.5391 151.733 12.1846C151.629 11.8301 151.577 11.4702 151.577 11.105V10.6377C151.577 10.0863 151.633 9.54557 151.744 9.01562C151.855 8.48568 152.046 8.00586 152.318 7.57617C152.594 7.14648 152.976 6.80452 153.462 6.55029C153.949 6.29606 154.571 6.16895 155.326 6.16895ZM157.924 13.4736C157.924 13.3053 157.976 13.1639 158.08 13.0493C158.187 12.9312 158.341 12.8721 158.542 12.8721C158.742 12.8721 158.894 12.9312 158.998 13.0493C159.105 13.1639 159.159 13.3053 159.159 13.4736C159.159 13.6383 159.105 13.778 158.998 13.8926C158.894 14.0072 158.742 14.0645 158.542 14.0645C158.341 14.0645 158.187 14.0072 158.08 13.8926C157.976 13.778 157.924 13.6383 157.924 13.4736ZM165.925 13.1836V14H160.806V13.2856L163.368 10.4336C163.683 10.0827 163.927 9.78548 164.099 9.54199C164.274 9.29492 164.396 9.07471 164.464 8.88135C164.535 8.68441 164.571 8.48389 164.571 8.27979C164.571 8.02197 164.517 7.78923 164.41 7.58154C164.306 7.37028 164.152 7.20199 163.948 7.07666C163.744 6.95133 163.497 6.88867 163.207 6.88867C162.86 6.88867 162.57 6.95671 162.337 7.09277C162.108 7.22526 161.936 7.41146 161.821 7.65137C161.707 7.89128 161.649 8.16699 161.649 8.47852H160.656C160.656 8.03809 160.752 7.63525 160.946 7.27002C161.139 6.90479 161.426 6.61475 161.805 6.3999C162.185 6.18148 162.652 6.07227 163.207 6.07227C163.701 6.07227 164.124 6.15999 164.475 6.33545C164.825 6.50732 165.094 6.75081 165.28 7.06592C165.47 7.37744 165.565 7.74268 165.565 8.16162C165.565 8.39079 165.525 8.62354 165.447 8.85986C165.371 9.09261 165.266 9.32536 165.13 9.55811C164.997 9.79085 164.842 10.02 164.663 10.2456C164.487 10.4712 164.299 10.6932 164.099 10.9116L162.004 13.1836H165.925ZM171.997 9.4668V10.6592C171.997 11.3001 171.94 11.8408 171.825 12.2812C171.711 12.7217 171.546 13.0762 171.331 13.3447C171.117 13.6133 170.857 13.8084 170.553 13.9302C170.252 14.0483 169.912 14.1074 169.532 14.1074C169.231 14.1074 168.954 14.0698 168.7 13.9946C168.445 13.9194 168.216 13.7995 168.012 13.6348C167.811 13.4665 167.64 13.248 167.496 12.9795C167.353 12.7109 167.244 12.3851 167.169 12.002C167.094 11.6188 167.056 11.1712 167.056 10.6592V9.4668C167.056 8.82585 167.113 8.28874 167.228 7.85547C167.346 7.4222 167.513 7.07487 167.727 6.81348C167.942 6.5485 168.2 6.35872 168.501 6.24414C168.805 6.12956 169.145 6.07227 169.521 6.07227C169.826 6.07227 170.105 6.10986 170.359 6.18506C170.617 6.25667 170.846 6.37305 171.047 6.53418C171.247 6.69173 171.417 6.90299 171.557 7.16797C171.7 7.42936 171.809 7.74984 171.885 8.12939C171.96 8.50895 171.997 8.95475 171.997 9.4668ZM170.998 10.8203V9.30029C170.998 8.94938 170.977 8.64144 170.934 8.37646C170.894 8.10791 170.835 7.87874 170.757 7.68896C170.678 7.49919 170.578 7.34521 170.456 7.22705C170.338 7.10889 170.2 7.02295 170.042 6.96924C169.888 6.91195 169.715 6.8833 169.521 6.8833C169.285 6.8833 169.075 6.92806 168.893 7.01758C168.71 7.10352 168.556 7.24137 168.431 7.43115C168.309 7.62093 168.216 7.86979 168.152 8.17773C168.087 8.48568 168.055 8.85986 168.055 9.30029V10.8203C168.055 11.1712 168.075 11.481 168.114 11.7495C168.157 12.0181 168.22 12.2508 168.302 12.4478C168.384 12.6411 168.485 12.8005 168.603 12.9258C168.721 13.0511 168.857 13.1442 169.011 13.2051C169.169 13.2624 169.342 13.291 169.532 13.291C169.776 13.291 169.989 13.2445 170.171 13.1514C170.354 13.0583 170.506 12.9132 170.628 12.7163C170.753 12.5158 170.846 12.2598 170.907 11.9482C170.968 11.6331 170.998 11.2572 170.998 10.8203ZM178.5 13.1836V14H173.381V13.2856L175.943 10.4336C176.258 10.0827 176.502 9.78548 176.674 9.54199C176.849 9.29492 176.971 9.07471 177.039 8.88135C177.11 8.68441 177.146 8.48389 177.146 8.27979C177.146 8.02197 177.092 7.78923 176.985 7.58154C176.881 7.37028 176.727 7.20199 176.523 7.07666C176.319 6.95133 176.072 6.88867 175.782 6.88867C175.435 6.88867 175.145 6.95671 174.912 7.09277C174.683 7.22526 174.511 7.41146 174.396 7.65137C174.282 7.89128 174.224 8.16699 174.224 8.47852H173.231C173.231 8.03809 173.327 7.63525 173.521 7.27002C173.714 6.90479 174.001 6.61475 174.38 6.3999C174.76 6.18148 175.227 6.07227 175.782 6.07227C176.276 6.07227 176.699 6.15999 177.05 6.33545C177.4 6.50732 177.669 6.75081 177.855 7.06592C178.045 7.37744 178.14 7.74268 178.14 8.16162C178.14 8.39079 178.1 8.62354 178.022 8.85986C177.946 9.09261 177.841 9.32536 177.705 9.55811C177.572 9.79085 177.417 10.02 177.237 10.2456C177.062 10.4712 176.874 10.6932 176.674 10.9116L174.579 13.1836H178.5ZM181.113 9.60107H181.822C182.17 9.60107 182.456 9.54378 182.682 9.4292C182.911 9.31104 183.081 9.15169 183.192 8.95117C183.307 8.74707 183.364 8.5179 183.364 8.26367C183.364 7.96289 183.314 7.71045 183.213 7.50635C183.113 7.30225 182.963 7.14827 182.762 7.04443C182.562 6.94059 182.308 6.88867 182 6.88867C181.72 6.88867 181.473 6.94417 181.258 7.05518C181.047 7.1626 180.881 7.31657 180.759 7.51709C180.641 7.71761 180.582 7.95394 180.582 8.22607H179.588C179.588 7.82861 179.688 7.46696 179.889 7.14111C180.089 6.81527 180.37 6.55566 180.732 6.3623C181.097 6.16895 181.52 6.07227 182 6.07227C182.472 6.07227 182.886 6.15641 183.24 6.32471C183.595 6.48942 183.871 6.73649 184.067 7.06592C184.264 7.39176 184.363 7.79818 184.363 8.28516C184.363 8.4821 184.316 8.69336 184.223 8.91895C184.134 9.14095 183.992 9.34863 183.799 9.54199C183.609 9.73535 183.362 9.89469 183.058 10.02C182.753 10.1418 182.388 10.2026 181.962 10.2026H181.113V9.60107ZM181.113 10.4175V9.82129H181.962C182.46 9.82129 182.872 9.88037 183.197 9.99854C183.523 10.1167 183.779 10.2743 183.965 10.4712C184.155 10.6681 184.288 10.8848 184.363 11.1211C184.442 11.3538 184.481 11.5866 184.481 11.8193C184.481 12.1846 184.418 12.5086 184.293 12.7915C184.171 13.0744 183.998 13.3143 183.772 13.5112C183.55 13.7082 183.289 13.8568 182.988 13.957C182.687 14.0573 182.359 14.1074 182.005 14.1074C181.665 14.1074 181.344 14.0591 181.044 13.9624C180.746 13.8657 180.483 13.7261 180.254 13.5435C180.025 13.3573 179.846 13.1299 179.717 12.8613C179.588 12.5892 179.524 12.2795 179.524 11.9321H180.517C180.517 12.2043 180.576 12.4424 180.694 12.6465C180.816 12.8506 180.988 13.0099 181.21 13.1245C181.436 13.2355 181.701 13.291 182.005 13.291C182.309 13.291 182.571 13.2391 182.789 13.1353C183.011 13.0278 183.181 12.8667 183.299 12.6519C183.421 12.437 183.482 12.1667 183.482 11.8408C183.482 11.515 183.414 11.2482 183.278 11.0405C183.142 10.8293 182.949 10.6735 182.698 10.5732C182.451 10.4694 182.159 10.4175 181.822 10.4175H181.113Z" fill="#8BB187"/>
<path d="M259.774 13.1836V14H254.655V13.2856L257.217 10.4336C257.532 10.0827 257.776 9.78548 257.948 9.54199C258.123 9.29492 258.245 9.07471 258.313 8.88135C258.385 8.68441 258.42 8.48389 258.42 8.27979C258.42 8.02197 258.367 7.78923 258.259 7.58154C258.155 7.37028 258.001 7.20199 257.797 7.07666C257.593 6.95133 257.346 6.88867 257.056 6.88867C256.709 6.88867 256.419 6.95671 256.186 7.09277C255.957 7.22526 255.785 7.41146 255.67 7.65137C255.556 7.89128 255.499 8.16699 255.499 8.47852H254.505C254.505 8.03809 254.602 7.63525 254.795 7.27002C254.988 6.90479 255.275 6.61475 255.654 6.3999C256.034 6.18148 256.501 6.07227 257.056 6.07227C257.55 6.07227 257.973 6.15999 258.324 6.33545C258.675 6.50732 258.943 6.75081 259.129 7.06592C259.319 7.37744 259.414 7.74268 259.414 8.16162C259.414 8.39079 259.375 8.62354 259.296 8.85986C259.221 9.09261 259.115 9.32536 258.979 9.55811C258.847 9.79085 258.691 10.02 258.512 10.2456C258.336 10.4712 258.148 10.6932 257.948 10.9116L255.853 13.1836H259.774ZM265.868 11.8838C265.868 12.36 265.757 12.7646 265.535 13.0977C265.317 13.4271 265.019 13.6777 264.643 13.8496C264.271 14.0215 263.85 14.1074 263.381 14.1074C262.912 14.1074 262.49 14.0215 262.114 13.8496C261.738 13.6777 261.44 13.4271 261.222 13.0977C261.004 12.7646 260.894 12.36 260.894 11.8838C260.894 11.5723 260.954 11.2876 261.072 11.0298C261.193 10.7684 261.364 10.541 261.582 10.3477C261.804 10.1543 262.065 10.0057 262.366 9.90186C262.67 9.79443 263.005 9.74072 263.371 9.74072C263.85 9.74072 264.278 9.83382 264.654 10.02C265.03 10.2026 265.326 10.4551 265.54 10.7773C265.759 11.0996 265.868 11.4684 265.868 11.8838ZM264.869 11.8623C264.869 11.5723 264.806 11.3162 264.681 11.0942C264.556 10.8687 264.38 10.6932 264.155 10.5679C263.929 10.4425 263.668 10.3799 263.371 10.3799C263.066 10.3799 262.803 10.4425 262.581 10.5679C262.363 10.6932 262.192 10.8687 262.071 11.0942C261.949 11.3162 261.888 11.5723 261.888 11.8623C261.888 12.1631 261.947 12.4209 262.065 12.6357C262.187 12.847 262.359 13.0099 262.581 13.1245C262.807 13.2355 263.073 13.291 263.381 13.291C263.689 13.291 263.954 13.2355 264.176 13.1245C264.398 13.0099 264.568 12.847 264.686 12.6357C264.808 12.4209 264.869 12.1631 264.869 11.8623ZM265.685 8.21533C265.685 8.59489 265.585 8.93685 265.385 9.24121C265.184 9.54557 264.91 9.78548 264.563 9.96094C264.216 10.1364 263.822 10.2241 263.381 10.2241C262.934 10.2241 262.534 10.1364 262.183 9.96094C261.836 9.78548 261.564 9.54557 261.367 9.24121C261.17 8.93685 261.072 8.59489 261.072 8.21533C261.072 7.76058 261.17 7.37386 261.367 7.05518C261.568 6.73649 261.842 6.493 262.189 6.32471C262.536 6.15641 262.932 6.07227 263.376 6.07227C263.823 6.07227 264.221 6.15641 264.568 6.32471C264.916 6.493 265.188 6.73649 265.385 7.05518C265.585 7.37386 265.685 7.76058 265.685 8.21533ZM264.692 8.23145C264.692 7.97005 264.636 7.7391 264.525 7.53857C264.414 7.33805 264.26 7.1805 264.063 7.06592C263.866 6.94775 263.637 6.88867 263.376 6.88867C263.114 6.88867 262.885 6.94417 262.688 7.05518C262.495 7.1626 262.343 7.31657 262.232 7.51709C262.124 7.71761 262.071 7.95573 262.071 8.23145C262.071 8.5 262.124 8.73454 262.232 8.93506C262.343 9.13558 262.497 9.29134 262.694 9.40234C262.891 9.51335 263.12 9.56885 263.381 9.56885C263.643 9.56885 263.87 9.51335 264.063 9.40234C264.26 9.29134 264.414 9.13558 264.525 8.93506C264.636 8.73454 264.692 8.5 264.692 8.23145ZM267.348 13.4736C267.348 13.3053 267.4 13.1639 267.504 13.0493C267.612 12.9312 267.766 12.8721 267.966 12.8721C268.167 12.8721 268.319 12.9312 268.423 13.0493C268.53 13.1639 268.584 13.3053 268.584 13.4736C268.584 13.6383 268.53 13.778 268.423 13.8926C268.319 14.0072 268.167 14.0645 267.966 14.0645C267.766 14.0645 267.612 14.0072 267.504 13.8926C267.4 13.778 267.348 13.6383 267.348 13.4736ZM275.134 9.4668V10.6592C275.134 11.3001 275.077 11.8408 274.963 12.2812C274.848 12.7217 274.683 13.0762 274.468 13.3447C274.254 13.6133 273.994 13.8084 273.69 13.9302C273.389 14.0483 273.049 14.1074 272.669 14.1074C272.368 14.1074 272.091 14.0698 271.837 13.9946C271.582 13.9194 271.353 13.7995 271.149 13.6348C270.949 13.4665 270.777 13.248 270.633 12.9795C270.49 12.7109 270.381 12.3851 270.306 12.002C270.231 11.6188 270.193 11.1712 270.193 10.6592V9.4668C270.193 8.82585 270.25 8.28874 270.365 7.85547C270.483 7.4222 270.65 7.07487 270.864 6.81348C271.079 6.5485 271.337 6.35872 271.638 6.24414C271.942 6.12956 272.282 6.07227 272.658 6.07227C272.963 6.07227 273.242 6.10986 273.496 6.18506C273.754 6.25667 273.983 6.37305 274.184 6.53418C274.384 6.69173 274.554 6.90299 274.694 7.16797C274.837 7.42936 274.946 7.74984 275.022 8.12939C275.097 8.50895 275.134 8.95475 275.134 9.4668ZM274.135 10.8203V9.30029C274.135 8.94938 274.114 8.64144 274.071 8.37646C274.032 8.10791 273.973 7.87874 273.894 7.68896C273.815 7.49919 273.715 7.34521 273.593 7.22705C273.475 7.10889 273.337 7.02295 273.179 6.96924C273.025 6.91195 272.852 6.8833 272.658 6.8833C272.422 6.8833 272.213 6.92806 272.03 7.01758C271.847 7.10352 271.693 7.24137 271.568 7.43115C271.446 7.62093 271.353 7.86979 271.289 8.17773C271.224 8.48568 271.192 8.85986 271.192 9.30029V10.8203C271.192 11.1712 271.212 11.481 271.251 11.7495C271.294 12.0181 271.357 12.2508 271.439 12.4478C271.522 12.6411 271.622 12.8005 271.74 12.9258C271.858 13.0511 271.994 13.1442 272.148 13.2051C272.306 13.2624 272.479 13.291 272.669 13.291C272.913 13.291 273.126 13.2445 273.308 13.1514C273.491 13.0583 273.643 12.9132 273.765 12.7163C273.89 12.5158 273.983 12.2598 274.044 11.9482C274.105 11.6331 274.135 11.2572 274.135 10.8203ZM280.326 6.16895H280.412V7.01221H280.326C279.8 7.01221 279.359 7.09814 279.005 7.27002C278.65 7.43831 278.369 7.66569 278.162 7.95215C277.954 8.23503 277.804 8.55371 277.711 8.9082C277.621 9.2627 277.576 9.62256 277.576 9.98779V11.1372C277.576 11.4845 277.617 11.7925 277.7 12.061C277.782 12.326 277.895 12.5498 278.038 12.7324C278.181 12.915 278.343 13.0529 278.522 13.146C278.704 13.2391 278.894 13.2856 279.091 13.2856C279.32 13.2856 279.524 13.2427 279.703 13.1567C279.882 13.0672 280.033 12.9437 280.154 12.7861C280.28 12.625 280.375 12.4352 280.439 12.2168C280.504 11.9984 280.536 11.7585 280.536 11.4971C280.536 11.2643 280.507 11.0405 280.45 10.8257C280.393 10.6073 280.305 10.4139 280.187 10.2456C280.068 10.0737 279.92 9.93945 279.741 9.84277C279.565 9.74251 279.356 9.69238 279.112 9.69238C278.837 9.69238 278.579 9.76042 278.339 9.89648C278.103 10.029 277.907 10.2044 277.754 10.4229C277.603 10.6377 277.517 10.8722 277.496 11.1265L276.969 11.1211C277.019 10.7201 277.113 10.3781 277.249 10.0952C277.388 9.80876 277.56 9.57601 277.764 9.39697C277.972 9.21436 278.203 9.08187 278.457 8.99951C278.715 8.91357 278.987 8.87061 279.274 8.87061C279.664 8.87061 280 8.94401 280.283 9.09082C280.566 9.23763 280.799 9.43457 280.982 9.68164C281.164 9.92513 281.298 10.2008 281.384 10.5088C281.474 10.8132 281.519 11.1265 281.519 11.4487C281.519 11.8175 281.467 12.1631 281.363 12.4854C281.259 12.8076 281.103 13.0905 280.896 13.334C280.692 13.5775 280.439 13.7673 280.138 13.9033C279.837 14.0394 279.488 14.1074 279.091 14.1074C278.668 14.1074 278.3 14.0215 277.984 13.8496C277.669 13.6742 277.408 13.4414 277.2 13.1514C276.993 12.8613 276.837 12.5391 276.733 12.1846C276.629 11.8301 276.577 11.4702 276.577 11.105V10.6377C276.577 10.0863 276.633 9.54557 276.744 9.01562C276.855 8.48568 277.046 8.00586 277.318 7.57617C277.594 7.14648 277.976 6.80452 278.462 6.55029C278.949 6.29606 279.571 6.16895 280.326 6.16895ZM282.924 13.4736C282.924 13.3053 282.976 13.1639 283.08 13.0493C283.187 12.9312 283.341 12.8721 283.542 12.8721C283.742 12.8721 283.894 12.9312 283.998 13.0493C284.105 13.1639 284.159 13.3053 284.159 13.4736C284.159 13.6383 284.105 13.778 283.998 13.8926C283.894 14.0072 283.742 14.0645 283.542 14.0645C283.341 14.0645 283.187 14.0072 283.08 13.8926C282.976 13.778 282.924 13.6383 282.924 13.4736ZM290.925 13.1836V14H285.806V13.2856L288.368 10.4336C288.683 10.0827 288.927 9.78548 289.099 9.54199C289.274 9.29492 289.396 9.07471 289.464 8.88135C289.535 8.68441 289.571 8.48389 289.571 8.27979C289.571 8.02197 289.517 7.78923 289.41 7.58154C289.306 7.37028 289.152 7.20199 288.948 7.07666C288.744 6.95133 288.497 6.88867 288.207 6.88867C287.86 6.88867 287.57 6.95671 287.337 7.09277C287.108 7.22526 286.936 7.41146 286.821 7.65137C286.707 7.89128 286.649 8.16699 286.649 8.47852H285.656C285.656 8.03809 285.752 7.63525 285.946 7.27002C286.139 6.90479 286.426 6.61475 286.805 6.3999C287.185 6.18148 287.652 6.07227 288.207 6.07227C288.701 6.07227 289.124 6.15999 289.475 6.33545C289.825 6.50732 290.094 6.75081 290.28 7.06592C290.47 7.37744 290.565 7.74268 290.565 8.16162C290.565 8.39079 290.525 8.62354 290.447 8.85986C290.371 9.09261 290.266 9.32536 290.13 9.55811C289.997 9.79085 289.842 10.02 289.663 10.2456C289.487 10.4712 289.299 10.6932 289.099 10.9116L287.004 13.1836H290.925ZM296.997 9.4668V10.6592C296.997 11.3001 296.94 11.8408 296.825 12.2812C296.711 12.7217 296.546 13.0762 296.331 13.3447C296.117 13.6133 295.857 13.8084 295.553 13.9302C295.252 14.0483 294.912 14.1074 294.532 14.1074C294.231 14.1074 293.954 14.0698 293.7 13.9946C293.445 13.9194 293.216 13.7995 293.012 13.6348C292.811 13.4665 292.64 13.248 292.496 12.9795C292.353 12.7109 292.244 12.3851 292.169 12.002C292.094 11.6188 292.056 11.1712 292.056 10.6592V9.4668C292.056 8.82585 292.113 8.28874 292.228 7.85547C292.346 7.4222 292.513 7.07487 292.727 6.81348C292.942 6.5485 293.2 6.35872 293.501 6.24414C293.805 6.12956 294.145 6.07227 294.521 6.07227C294.826 6.07227 295.105 6.10986 295.359 6.18506C295.617 6.25667 295.846 6.37305 296.047 6.53418C296.247 6.69173 296.417 6.90299 296.557 7.16797C296.7 7.42936 296.809 7.74984 296.885 8.12939C296.96 8.50895 296.997 8.95475 296.997 9.4668ZM295.998 10.8203V9.30029C295.998 8.94938 295.977 8.64144 295.934 8.37646C295.894 8.10791 295.835 7.87874 295.757 7.68896C295.678 7.49919 295.578 7.34521 295.456 7.22705C295.338 7.10889 295.2 7.02295 295.042 6.96924C294.888 6.91195 294.715 6.8833 294.521 6.8833C294.285 6.8833 294.075 6.92806 293.893 7.01758C293.71 7.10352 293.556 7.24137 293.431 7.43115C293.309 7.62093 293.216 7.86979 293.152 8.17773C293.087 8.48568 293.055 8.85986 293.055 9.30029V10.8203C293.055 11.1712 293.075 11.481 293.114 11.7495C293.157 12.0181 293.22 12.2508 293.302 12.4478C293.384 12.6411 293.485 12.8005 293.603 12.9258C293.721 13.0511 293.857 13.1442 294.011 13.2051C294.169 13.2624 294.342 13.291 294.532 13.291C294.776 13.291 294.989 13.2445 295.171 13.1514C295.354 13.0583 295.506 12.9132 295.628 12.7163C295.753 12.5158 295.846 12.2598 295.907 11.9482C295.968 11.6331 295.998 11.2572 295.998 10.8203ZM303.5 13.1836V14H298.381V13.2856L300.943 10.4336C301.258 10.0827 301.502 9.78548 301.674 9.54199C301.849 9.29492 301.971 9.07471 302.039 8.88135C302.11 8.68441 302.146 8.48389 302.146 8.27979C302.146 8.02197 302.092 7.78923 301.985 7.58154C301.881 7.37028 301.727 7.20199 301.523 7.07666C301.319 6.95133 301.072 6.88867 300.782 6.88867C300.435 6.88867 300.145 6.95671 299.912 7.09277C299.683 7.22526 299.511 7.41146 299.396 7.65137C299.282 7.89128 299.224 8.16699 299.224 8.47852H298.231C298.231 8.03809 298.327 7.63525 298.521 7.27002C298.714 6.90479 299.001 6.61475 299.38 6.3999C299.76 6.18148 300.227 6.07227 300.782 6.07227C301.276 6.07227 301.699 6.15999 302.05 6.33545C302.4 6.50732 302.669 6.75081 302.855 7.06592C303.045 7.37744 303.14 7.74268 303.14 8.16162C303.14 8.39079 303.1 8.62354 303.022 8.85986C302.946 9.09261 302.841 9.32536 302.705 9.55811C302.572 9.79085 302.417 10.02 302.237 10.2456C302.062 10.4712 301.874 10.6932 301.674 10.9116L299.579 13.1836H303.5ZM306.113 9.60107H306.822C307.17 9.60107 307.456 9.54378 307.682 9.4292C307.911 9.31104 308.081 9.15169 308.192 8.95117C308.307 8.74707 308.364 8.5179 308.364 8.26367C308.364 7.96289 308.314 7.71045 308.213 7.50635C308.113 7.30225 307.963 7.14827 307.762 7.04443C307.562 6.94059 307.308 6.88867 307 6.88867C306.72 6.88867 306.473 6.94417 306.258 7.05518C306.047 7.1626 305.881 7.31657 305.759 7.51709C305.641 7.71761 305.582 7.95394 305.582 8.22607H304.588C304.588 7.82861 304.688 7.46696 304.889 7.14111C305.089 6.81527 305.37 6.55566 305.732 6.3623C306.097 6.16895 306.52 6.07227 307 6.07227C307.472 6.07227 307.886 6.15641 308.24 6.32471C308.595 6.48942 308.871 6.73649 309.067 7.06592C309.264 7.39176 309.363 7.79818 309.363 8.28516C309.363 8.4821 309.316 8.69336 309.223 8.91895C309.134 9.14095 308.992 9.34863 308.799 9.54199C308.609 9.73535 308.362 9.89469 308.058 10.02C307.753 10.1418 307.388 10.2026 306.962 10.2026H306.113V9.60107ZM306.113 10.4175V9.82129H306.962C307.46 9.82129 307.872 9.88037 308.197 9.99854C308.523 10.1167 308.779 10.2743 308.965 10.4712C309.155 10.6681 309.288 10.8848 309.363 11.1211C309.442 11.3538 309.481 11.5866 309.481 11.8193C309.481 12.1846 309.418 12.5086 309.293 12.7915C309.171 13.0744 308.998 13.3143 308.772 13.5112C308.55 13.7082 308.289 13.8568 307.988 13.957C307.687 14.0573 307.359 14.1074 307.005 14.1074C306.665 14.1074 306.344 14.0591 306.044 13.9624C305.746 13.8657 305.483 13.7261 305.254 13.5435C305.025 13.3573 304.846 13.1299 304.717 12.8613C304.588 12.5892 304.524 12.2795 304.524 11.9321H305.517C305.517 12.2043 305.576 12.4424 305.694 12.6465C305.816 12.8506 305.988 13.0099 306.21 13.1245C306.436 13.2355 306.701 13.291 307.005 13.291C307.309 13.291 307.571 13.2391 307.789 13.1353C308.011 13.0278 308.181 12.8667 308.299 12.6519C308.421 12.437 308.482 12.1667 308.482 11.8408C308.482 11.515 308.414 11.2482 308.278 11.0405C308.142 10.8293 307.949 10.6735 307.698 10.5732C307.451 10.4694 307.159 10.4175 306.822 10.4175H306.113Z" fill="#8BB187"/>
<path d="M384.774 13.1836V14H379.655V13.2856L382.217 10.4336C382.532 10.0827 382.776 9.78548 382.948 9.54199C383.123 9.29492 383.245 9.07471 383.313 8.88135C383.385 8.68441 383.42 8.48389 383.42 8.27979C383.42 8.02197 383.367 7.78923 383.259 7.58154C383.155 7.37028 383.001 7.20199 382.797 7.07666C382.593 6.95133 382.346 6.88867 382.056 6.88867C381.709 6.88867 381.419 6.95671 381.186 7.09277C380.957 7.22526 380.785 7.41146 380.67 7.65137C380.556 7.89128 380.499 8.16699 380.499 8.47852H379.505C379.505 8.03809 379.602 7.63525 379.795 7.27002C379.988 6.90479 380.275 6.61475 380.654 6.3999C381.034 6.18148 381.501 6.07227 382.056 6.07227C382.55 6.07227 382.973 6.15999 383.324 6.33545C383.675 6.50732 383.943 6.75081 384.129 7.06592C384.319 7.37744 384.414 7.74268 384.414 8.16162C384.414 8.39079 384.375 8.62354 384.296 8.85986C384.221 9.09261 384.115 9.32536 383.979 9.55811C383.847 9.79085 383.691 10.02 383.512 10.2456C383.336 10.4712 383.148 10.6932 382.948 10.9116L380.853 13.1836H384.774ZM386.926 13.1675H387.028C387.601 13.1675 388.066 13.0869 388.424 12.9258C388.782 12.7646 389.058 12.548 389.251 12.2759C389.445 12.0037 389.577 11.6976 389.649 11.3574C389.72 11.0137 389.756 10.661 389.756 10.2993V9.10156C389.756 8.74707 389.715 8.43197 389.633 8.15625C389.554 7.88053 389.443 7.64958 389.3 7.46338C389.16 7.27718 389.001 7.13574 388.822 7.03906C388.643 6.94238 388.453 6.89404 388.252 6.89404C388.023 6.89404 387.817 6.94059 387.635 7.03369C387.456 7.12321 387.303 7.25033 387.178 7.41504C387.056 7.57975 386.963 7.77311 386.899 7.99512C386.834 8.21712 386.802 8.45882 386.802 8.72021C386.802 8.95296 386.831 9.17855 386.888 9.39697C386.945 9.6154 387.033 9.81234 387.151 9.98779C387.269 10.1632 387.416 10.3029 387.592 10.4067C387.771 10.507 387.98 10.5571 388.22 10.5571C388.442 10.5571 388.65 10.5142 388.843 10.4282C389.04 10.3387 389.214 10.2188 389.364 10.0684C389.518 9.91439 389.64 9.74072 389.729 9.54736C389.822 9.354 389.876 9.15169 389.891 8.94043H390.363C390.363 9.23763 390.304 9.53125 390.186 9.82129C390.071 10.1077 389.91 10.3691 389.703 10.6055C389.495 10.8418 389.251 11.0316 388.972 11.1748C388.693 11.3145 388.388 11.3843 388.059 11.3843C387.672 11.3843 387.337 11.3091 387.055 11.1587C386.772 11.0083 386.539 10.8078 386.356 10.5571C386.177 10.3065 386.043 10.0272 385.954 9.71924C385.868 9.40771 385.825 9.09261 385.825 8.77393C385.825 8.40153 385.877 8.05241 385.98 7.72656C386.084 7.40072 386.238 7.11426 386.442 6.86719C386.646 6.61654 386.899 6.42139 387.2 6.28174C387.504 6.14209 387.855 6.07227 388.252 6.07227C388.7 6.07227 389.081 6.16178 389.396 6.34082C389.711 6.51986 389.968 6.75977 390.164 7.06055C390.365 7.36133 390.512 7.69971 390.605 8.07568C390.698 8.45166 390.745 8.83838 390.745 9.23584V9.5957C390.745 10.0003 390.718 10.4121 390.664 10.8311C390.614 11.2464 390.515 11.6439 390.369 12.0234C390.225 12.403 390.016 12.7432 389.74 13.0439C389.464 13.3411 389.105 13.5775 388.661 13.7529C388.22 13.9248 387.676 14.0107 387.028 14.0107H386.926V13.1675ZM392.348 13.4736C392.348 13.3053 392.4 13.1639 392.504 13.0493C392.612 12.9312 392.766 12.8721 392.966 12.8721C393.167 12.8721 393.319 12.9312 393.423 13.0493C393.53 13.1639 393.584 13.3053 393.584 13.4736C393.584 13.6383 393.53 13.778 393.423 13.8926C393.319 14.0072 393.167 14.0645 392.966 14.0645C392.766 14.0645 392.612 14.0072 392.504 13.8926C392.4 13.778 392.348 13.6383 392.348 13.4736ZM400.134 9.4668V10.6592C400.134 11.3001 400.077 11.8408 399.963 12.2812C399.848 12.7217 399.683 13.0762 399.468 13.3447C399.254 13.6133 398.994 13.8084 398.69 13.9302C398.389 14.0483 398.049 14.1074 397.669 14.1074C397.368 14.1074 397.091 14.0698 396.837 13.9946C396.582 13.9194 396.353 13.7995 396.149 13.6348C395.949 13.4665 395.777 13.248 395.633 12.9795C395.49 12.7109 395.381 12.3851 395.306 12.002C395.231 11.6188 395.193 11.1712 395.193 10.6592V9.4668C395.193 8.82585 395.25 8.28874 395.365 7.85547C395.483 7.4222 395.65 7.07487 395.864 6.81348C396.079 6.5485 396.337 6.35872 396.638 6.24414C396.942 6.12956 397.282 6.07227 397.658 6.07227C397.963 6.07227 398.242 6.10986 398.496 6.18506C398.754 6.25667 398.983 6.37305 399.184 6.53418C399.384 6.69173 399.554 6.90299 399.694 7.16797C399.837 7.42936 399.946 7.74984 400.022 8.12939C400.097 8.50895 400.134 8.95475 400.134 9.4668ZM399.135 10.8203V9.30029C399.135 8.94938 399.114 8.64144 399.071 8.37646C399.032 8.10791 398.973 7.87874 398.894 7.68896C398.815 7.49919 398.715 7.34521 398.593 7.22705C398.475 7.10889 398.337 7.02295 398.179 6.96924C398.025 6.91195 397.852 6.8833 397.658 6.8833C397.422 6.8833 397.213 6.92806 397.03 7.01758C396.847 7.10352 396.693 7.24137 396.568 7.43115C396.446 7.62093 396.353 7.86979 396.289 8.17773C396.224 8.48568 396.192 8.85986 396.192 9.30029V10.8203C396.192 11.1712 396.212 11.481 396.251 11.7495C396.294 12.0181 396.357 12.2508 396.439 12.4478C396.522 12.6411 396.622 12.8005 396.74 12.9258C396.858 13.0511 396.994 13.1442 397.148 13.2051C397.306 13.2624 397.479 13.291 397.669 13.291C397.913 13.291 398.126 13.2445 398.308 13.1514C398.491 13.0583 398.643 12.9132 398.765 12.7163C398.89 12.5158 398.983 12.2598 399.044 11.9482C399.105 11.6331 399.135 11.2572 399.135 10.8203ZM405.326 6.16895H405.412V7.01221H405.326C404.8 7.01221 404.359 7.09814 404.005 7.27002C403.65 7.43831 403.369 7.66569 403.162 7.95215C402.954 8.23503 402.804 8.55371 402.711 8.9082C402.621 9.2627 402.576 9.62256 402.576 9.98779V11.1372C402.576 11.4845 402.617 11.7925 402.7 12.061C402.782 12.326 402.895 12.5498 403.038 12.7324C403.181 12.915 403.343 13.0529 403.522 13.146C403.704 13.2391 403.894 13.2856 404.091 13.2856C404.32 13.2856 404.524 13.2427 404.703 13.1567C404.882 13.0672 405.033 12.9437 405.154 12.7861C405.28 12.625 405.375 12.4352 405.439 12.2168C405.504 11.9984 405.536 11.7585 405.536 11.4971C405.536 11.2643 405.507 11.0405 405.45 10.8257C405.393 10.6073 405.305 10.4139 405.187 10.2456C405.068 10.0737 404.92 9.93945 404.741 9.84277C404.565 9.74251 404.356 9.69238 404.112 9.69238C403.837 9.69238 403.579 9.76042 403.339 9.89648C403.103 10.029 402.907 10.2044 402.754 10.4229C402.603 10.6377 402.517 10.8722 402.496 11.1265L401.969 11.1211C402.019 10.7201 402.113 10.3781 402.249 10.0952C402.388 9.80876 402.56 9.57601 402.764 9.39697C402.972 9.21436 403.203 9.08187 403.457 8.99951C403.715 8.91357 403.987 8.87061 404.274 8.87061C404.664 8.87061 405 8.94401 405.283 9.09082C405.566 9.23763 405.799 9.43457 405.982 9.68164C406.164 9.92513 406.298 10.2008 406.384 10.5088C406.474 10.8132 406.519 11.1265 406.519 11.4487C406.519 11.8175 406.467 12.1631 406.363 12.4854C406.259 12.8076 406.103 13.0905 405.896 13.334C405.692 13.5775 405.439 13.7673 405.138 13.9033C404.837 14.0394 404.488 14.1074 404.091 14.1074C403.668 14.1074 403.3 14.0215 402.984 13.8496C402.669 13.6742 402.408 13.4414 402.2 13.1514C401.993 12.8613 401.837 12.5391 401.733 12.1846C401.629 11.8301 401.577 11.4702 401.577 11.105V10.6377C401.577 10.0863 401.633 9.54557 401.744 9.01562C401.855 8.48568 402.046 8.00586 402.318 7.57617C402.594 7.14648 402.976 6.80452 403.462 6.55029C403.949 6.29606 404.571 6.16895 405.326 6.16895ZM407.924 13.4736C407.924 13.3053 407.976 13.1639 408.08 13.0493C408.187 12.9312 408.341 12.8721 408.542 12.8721C408.742 12.8721 408.894 12.9312 408.998 13.0493C409.105 13.1639 409.159 13.3053 409.159 13.4736C409.159 13.6383 409.105 13.778 408.998 13.8926C408.894 14.0072 408.742 14.0645 408.542 14.0645C408.341 14.0645 408.187 14.0072 408.08 13.8926C407.976 13.778 407.924 13.6383 407.924 13.4736ZM415.925 13.1836V14H410.806V13.2856L413.368 10.4336C413.683 10.0827 413.927 9.78548 414.099 9.54199C414.274 9.29492 414.396 9.07471 414.464 8.88135C414.535 8.68441 414.571 8.48389 414.571 8.27979C414.571 8.02197 414.517 7.78923 414.41 7.58154C414.306 7.37028 414.152 7.20199 413.948 7.07666C413.744 6.95133 413.497 6.88867 413.207 6.88867C412.86 6.88867 412.57 6.95671 412.337 7.09277C412.108 7.22526 411.936 7.41146 411.821 7.65137C411.707 7.89128 411.649 8.16699 411.649 8.47852H410.656C410.656 8.03809 410.752 7.63525 410.946 7.27002C411.139 6.90479 411.426 6.61475 411.805 6.3999C412.185 6.18148 412.652 6.07227 413.207 6.07227C413.701 6.07227 414.124 6.15999 414.475 6.33545C414.825 6.50732 415.094 6.75081 415.28 7.06592C415.47 7.37744 415.565 7.74268 415.565 8.16162C415.565 8.39079 415.525 8.62354 415.447 8.85986C415.371 9.09261 415.266 9.32536 415.13 9.55811C414.997 9.79085 414.842 10.02 414.663 10.2456C414.487 10.4712 414.299 10.6932 414.099 10.9116L412.004 13.1836H415.925ZM421.997 9.4668V10.6592C421.997 11.3001 421.94 11.8408 421.825 12.2812C421.711 12.7217 421.546 13.0762 421.331 13.3447C421.117 13.6133 420.857 13.8084 420.553 13.9302C420.252 14.0483 419.912 14.1074 419.532 14.1074C419.231 14.1074 418.954 14.0698 418.7 13.9946C418.445 13.9194 418.216 13.7995 418.012 13.6348C417.811 13.4665 417.64 13.248 417.496 12.9795C417.353 12.7109 417.244 12.3851 417.169 12.002C417.094 11.6188 417.056 11.1712 417.056 10.6592V9.4668C417.056 8.82585 417.113 8.28874 417.228 7.85547C417.346 7.4222 417.513 7.07487 417.727 6.81348C417.942 6.5485 418.2 6.35872 418.501 6.24414C418.805 6.12956 419.145 6.07227 419.521 6.07227C419.826 6.07227 420.105 6.10986 420.359 6.18506C420.617 6.25667 420.846 6.37305 421.047 6.53418C421.247 6.69173 421.417 6.90299 421.557 7.16797C421.7 7.42936 421.809 7.74984 421.885 8.12939C421.96 8.50895 421.997 8.95475 421.997 9.4668ZM420.998 10.8203V9.30029C420.998 8.94938 420.977 8.64144 420.934 8.37646C420.894 8.10791 420.835 7.87874 420.757 7.68896C420.678 7.49919 420.578 7.34521 420.456 7.22705C420.338 7.10889 420.2 7.02295 420.042 6.96924C419.888 6.91195 419.715 6.8833 419.521 6.8833C419.285 6.8833 419.075 6.92806 418.893 7.01758C418.71 7.10352 418.556 7.24137 418.431 7.43115C418.309 7.62093 418.216 7.86979 418.152 8.17773C418.087 8.48568 418.055 8.85986 418.055 9.30029V10.8203C418.055 11.1712 418.075 11.481 418.114 11.7495C418.157 12.0181 418.22 12.2508 418.302 12.4478C418.384 12.6411 418.485 12.8005 418.603 12.9258C418.721 13.0511 418.857 13.1442 419.011 13.2051C419.169 13.2624 419.342 13.291 419.532 13.291C419.776 13.291 419.989 13.2445 420.171 13.1514C420.354 13.0583 420.506 12.9132 420.628 12.7163C420.753 12.5158 420.846 12.2598 420.907 11.9482C420.968 11.6331 420.998 11.2572 420.998 10.8203ZM428.5 13.1836V14H423.381V13.2856L425.943 10.4336C426.258 10.0827 426.502 9.78548 426.674 9.54199C426.849 9.29492 426.971 9.07471 427.039 8.88135C427.11 8.68441 427.146 8.48389 427.146 8.27979C427.146 8.02197 427.092 7.78923 426.985 7.58154C426.881 7.37028 426.727 7.20199 426.523 7.07666C426.319 6.95133 426.072 6.88867 425.782 6.88867C425.435 6.88867 425.145 6.95671 424.912 7.09277C424.683 7.22526 424.511 7.41146 424.396 7.65137C424.282 7.89128 424.224 8.16699 424.224 8.47852H423.231C423.231 8.03809 423.327 7.63525 423.521 7.27002C423.714 6.90479 424.001 6.61475 424.38 6.3999C424.76 6.18148 425.227 6.07227 425.782 6.07227C426.276 6.07227 426.699 6.15999 427.05 6.33545C427.4 6.50732 427.669 6.75081 427.855 7.06592C428.045 7.37744 428.14 7.74268 428.14 8.16162C428.14 8.39079 428.1 8.62354 428.022 8.85986C427.946 9.09261 427.841 9.32536 427.705 9.55811C427.572 9.79085 427.417 10.02 427.237 10.2456C427.062 10.4712 426.874 10.6932 426.674 10.9116L424.579 13.1836H428.5ZM431.113 9.60107H431.822C432.17 9.60107 432.456 9.54378 432.682 9.4292C432.911 9.31104 433.081 9.15169 433.192 8.95117C433.307 8.74707 433.364 8.5179 433.364 8.26367C433.364 7.96289 433.314 7.71045 433.213 7.50635C433.113 7.30225 432.963 7.14827 432.762 7.04443C432.562 6.94059 432.308 6.88867 432 6.88867C431.72 6.88867 431.473 6.94417 431.258 7.05518C431.047 7.1626 430.881 7.31657 430.759 7.51709C430.641 7.71761 430.582 7.95394 430.582 8.22607H429.588C429.588 7.82861 429.688 7.46696 429.889 7.14111C430.089 6.81527 430.37 6.55566 430.732 6.3623C431.097 6.16895 431.52 6.07227 432 6.07227C432.472 6.07227 432.886 6.15641 433.24 6.32471C433.595 6.48942 433.871 6.73649 434.067 7.06592C434.264 7.39176 434.363 7.79818 434.363 8.28516C434.363 8.4821 434.316 8.69336 434.223 8.91895C434.134 9.14095 433.992 9.34863 433.799 9.54199C433.609 9.73535 433.362 9.89469 433.058 10.02C432.753 10.1418 432.388 10.2026 431.962 10.2026H431.113V9.60107ZM431.113 10.4175V9.82129H431.962C432.46 9.82129 432.872 9.88037 433.197 9.99854C433.523 10.1167 433.779 10.2743 433.965 10.4712C434.155 10.6681 434.288 10.8848 434.363 11.1211C434.442 11.3538 434.481 11.5866 434.481 11.8193C434.481 12.1846 434.418 12.5086 434.293 12.7915C434.171 13.0744 433.998 13.3143 433.772 13.5112C433.55 13.7082 433.289 13.8568 432.988 13.957C432.687 14.0573 432.359 14.1074 432.005 14.1074C431.665 14.1074 431.344 14.0591 431.044 13.9624C430.746 13.8657 430.483 13.7261 430.254 13.5435C430.025 13.3573 429.846 13.1299 429.717 12.8613C429.588 12.5892 429.524 12.2795 429.524 11.9321H430.517C430.517 12.2043 430.576 12.4424 430.694 12.6465C430.816 12.8506 430.988 13.0099 431.21 13.1245C431.436 13.2355 431.701 13.291 432.005 13.291C432.309 13.291 432.571 13.2391 432.789 13.1353C433.011 13.0278 433.181 12.8667 433.299 12.6519C433.421 12.437 433.482 12.1667 433.482 11.8408C433.482 11.515 433.414 11.2482 433.278 11.0405C433.142 10.8293 432.949 10.6735 432.698 10.5732C432.451 10.4694 432.159 10.4175 431.822 10.4175H431.113Z" fill="#8BB187"/>
<path d="M506.1 9.60107H506.809C507.156 9.60107 507.443 9.54378 507.668 9.4292C507.898 9.31104 508.068 9.15169 508.179 8.95117C508.293 8.74707 508.351 8.5179 508.351 8.26367C508.351 7.96289 508.3 7.71045 508.2 7.50635C508.1 7.30225 507.95 7.14827 507.749 7.04443C507.549 6.94059 507.294 6.88867 506.986 6.88867C506.707 6.88867 506.46 6.94417 506.245 7.05518C506.034 7.1626 505.867 7.31657 505.746 7.51709C505.627 7.71761 505.568 7.95394 505.568 8.22607H504.575C504.575 7.82861 504.675 7.46696 504.875 7.14111C505.076 6.81527 505.357 6.55566 505.719 6.3623C506.084 6.16895 506.507 6.07227 506.986 6.07227C507.459 6.07227 507.873 6.15641 508.227 6.32471C508.582 6.48942 508.857 6.73649 509.054 7.06592C509.251 7.39176 509.35 7.79818 509.35 8.28516C509.35 8.4821 509.303 8.69336 509.21 8.91895C509.12 9.14095 508.979 9.34863 508.786 9.54199C508.596 9.73535 508.349 9.89469 508.044 10.02C507.74 10.1418 507.375 10.2026 506.949 10.2026H506.1V9.60107ZM506.1 10.4175V9.82129H506.949C507.446 9.82129 507.858 9.88037 508.184 9.99854C508.51 10.1167 508.766 10.2743 508.952 10.4712C509.142 10.6681 509.274 10.8848 509.35 11.1211C509.428 11.3538 509.468 11.5866 509.468 11.8193C509.468 12.1846 509.405 12.5086 509.28 12.7915C509.158 13.0744 508.984 13.3143 508.759 13.5112C508.537 13.7082 508.275 13.8568 507.975 13.957C507.674 14.0573 507.346 14.1074 506.992 14.1074C506.652 14.1074 506.331 14.0591 506.03 13.9624C505.733 13.8657 505.47 13.7261 505.241 13.5435C505.012 13.3573 504.833 13.1299 504.704 12.8613C504.575 12.5892 504.51 12.2795 504.51 11.9321H505.504C505.504 12.2043 505.563 12.4424 505.681 12.6465C505.803 12.8506 505.975 13.0099 506.197 13.1245C506.422 13.2355 506.687 13.291 506.992 13.291C507.296 13.291 507.557 13.2391 507.776 13.1353C507.998 13.0278 508.168 12.8667 508.286 12.6519C508.408 12.437 508.469 12.1667 508.469 11.8408C508.469 11.515 508.401 11.2482 508.265 11.0405C508.129 10.8293 507.935 10.6735 507.685 10.5732C507.438 10.4694 507.146 10.4175 506.809 10.4175H506.1ZM515.847 9.4668V10.6592C515.847 11.3001 515.789 11.8408 515.675 12.2812C515.56 12.7217 515.395 13.0762 515.181 13.3447C514.966 13.6133 514.706 13.8084 514.402 13.9302C514.101 14.0483 513.761 14.1074 513.381 14.1074C513.08 14.1074 512.803 14.0698 512.549 13.9946C512.294 13.9194 512.065 13.7995 511.861 13.6348C511.661 13.4665 511.489 13.248 511.346 12.9795C511.202 12.7109 511.093 12.3851 511.018 12.002C510.943 11.6188 510.905 11.1712 510.905 10.6592V9.4668C510.905 8.82585 510.962 8.28874 511.077 7.85547C511.195 7.4222 511.362 7.07487 511.577 6.81348C511.791 6.5485 512.049 6.35872 512.35 6.24414C512.654 6.12956 512.995 6.07227 513.371 6.07227C513.675 6.07227 513.954 6.10986 514.208 6.18506C514.466 6.25667 514.695 6.37305 514.896 6.53418C515.096 6.69173 515.267 6.90299 515.406 7.16797C515.549 7.42936 515.659 7.74984 515.734 8.12939C515.809 8.50895 515.847 8.95475 515.847 9.4668ZM514.848 10.8203V9.30029C514.848 8.94938 514.826 8.64144 514.783 8.37646C514.744 8.10791 514.685 7.87874 514.606 7.68896C514.527 7.49919 514.427 7.34521 514.305 7.22705C514.187 7.10889 514.049 7.02295 513.892 6.96924C513.738 6.91195 513.564 6.8833 513.371 6.8833C513.134 6.8833 512.925 6.92806 512.742 7.01758C512.559 7.10352 512.406 7.24137 512.28 7.43115C512.158 7.62093 512.065 7.86979 512.001 8.17773C511.936 8.48568 511.904 8.85986 511.904 9.30029V10.8203C511.904 11.1712 511.924 11.481 511.963 11.7495C512.006 12.0181 512.069 12.2508 512.151 12.4478C512.234 12.6411 512.334 12.8005 512.452 12.9258C512.57 13.0511 512.706 13.1442 512.86 13.2051C513.018 13.2624 513.191 13.291 513.381 13.291C513.625 13.291 513.838 13.2445 514.02 13.1514C514.203 13.0583 514.355 12.9132 514.477 12.7163C514.602 12.5158 514.695 12.2598 514.756 11.9482C514.817 11.6331 514.848 11.2572 514.848 10.8203ZM517.348 13.4736C517.348 13.3053 517.4 13.1639 517.504 13.0493C517.612 12.9312 517.766 12.8721 517.966 12.8721C518.167 12.8721 518.319 12.9312 518.423 13.0493C518.53 13.1639 518.584 13.3053 518.584 13.4736C518.584 13.6383 518.53 13.778 518.423 13.8926C518.319 14.0072 518.167 14.0645 517.966 14.0645C517.766 14.0645 517.612 14.0072 517.504 13.8926C517.4 13.778 517.348 13.6383 517.348 13.4736ZM525.134 9.4668V10.6592C525.134 11.3001 525.077 11.8408 524.963 12.2812C524.848 12.7217 524.683 13.0762 524.468 13.3447C524.254 13.6133 523.994 13.8084 523.69 13.9302C523.389 14.0483 523.049 14.1074 522.669 14.1074C522.368 14.1074 522.091 14.0698 521.837 13.9946C521.582 13.9194 521.353 13.7995 521.149 13.6348C520.949 13.4665 520.777 13.248 520.633 12.9795C520.49 12.7109 520.381 12.3851 520.306 12.002C520.231 11.6188 520.193 11.1712 520.193 10.6592V9.4668C520.193 8.82585 520.25 8.28874 520.365 7.85547C520.483 7.4222 520.65 7.07487 520.864 6.81348C521.079 6.5485 521.337 6.35872 521.638 6.24414C521.942 6.12956 522.282 6.07227 522.658 6.07227C522.963 6.07227 523.242 6.10986 523.496 6.18506C523.754 6.25667 523.983 6.37305 524.184 6.53418C524.384 6.69173 524.554 6.90299 524.694 7.16797C524.837 7.42936 524.946 7.74984 525.022 8.12939C525.097 8.50895 525.134 8.95475 525.134 9.4668ZM524.135 10.8203V9.30029C524.135 8.94938 524.114 8.64144 524.071 8.37646C524.032 8.10791 523.973 7.87874 523.894 7.68896C523.815 7.49919 523.715 7.34521 523.593 7.22705C523.475 7.10889 523.337 7.02295 523.179 6.96924C523.025 6.91195 522.852 6.8833 522.658 6.8833C522.422 6.8833 522.213 6.92806 522.03 7.01758C521.847 7.10352 521.693 7.24137 521.568 7.43115C521.446 7.62093 521.353 7.86979 521.289 8.17773C521.224 8.48568 521.192 8.85986 521.192 9.30029V10.8203C521.192 11.1712 521.212 11.481 521.251 11.7495C521.294 12.0181 521.357 12.2508 521.439 12.4478C521.522 12.6411 521.622 12.8005 521.74 12.9258C521.858 13.0511 521.994 13.1442 522.148 13.2051C522.306 13.2624 522.479 13.291 522.669 13.291C522.913 13.291 523.126 13.2445 523.308 13.1514C523.491 13.0583 523.643 12.9132 523.765 12.7163C523.89 12.5158 523.983 12.2598 524.044 11.9482C524.105 11.6331 524.135 11.2572 524.135 10.8203ZM530.326 6.16895H530.412V7.01221H530.326C529.8 7.01221 529.359 7.09814 529.005 7.27002C528.65 7.43831 528.369 7.66569 528.162 7.95215C527.954 8.23503 527.804 8.55371 527.711 8.9082C527.621 9.2627 527.576 9.62256 527.576 9.98779V11.1372C527.576 11.4845 527.617 11.7925 527.7 12.061C527.782 12.326 527.895 12.5498 528.038 12.7324C528.181 12.915 528.343 13.0529 528.522 13.146C528.704 13.2391 528.894 13.2856 529.091 13.2856C529.32 13.2856 529.524 13.2427 529.703 13.1567C529.882 13.0672 530.033 12.9437 530.154 12.7861C530.28 12.625 530.375 12.4352 530.439 12.2168C530.504 11.9984 530.536 11.7585 530.536 11.4971C530.536 11.2643 530.507 11.0405 530.45 10.8257C530.393 10.6073 530.305 10.4139 530.187 10.2456C530.068 10.0737 529.92 9.93945 529.741 9.84277C529.565 9.74251 529.356 9.69238 529.112 9.69238C528.837 9.69238 528.579 9.76042 528.339 9.89648C528.103 10.029 527.907 10.2044 527.754 10.4229C527.603 10.6377 527.517 10.8722 527.496 11.1265L526.969 11.1211C527.019 10.7201 527.113 10.3781 527.249 10.0952C527.388 9.80876 527.56 9.57601 527.764 9.39697C527.972 9.21436 528.203 9.08187 528.457 8.99951C528.715 8.91357 528.987 8.87061 529.274 8.87061C529.664 8.87061 530 8.94401 530.283 9.09082C530.566 9.23763 530.799 9.43457 530.982 9.68164C531.164 9.92513 531.298 10.2008 531.384 10.5088C531.474 10.8132 531.519 11.1265 531.519 11.4487C531.519 11.8175 531.467 12.1631 531.363 12.4854C531.259 12.8076 531.103 13.0905 530.896 13.334C530.692 13.5775 530.439 13.7673 530.138 13.9033C529.837 14.0394 529.488 14.1074 529.091 14.1074C528.668 14.1074 528.3 14.0215 527.984 13.8496C527.669 13.6742 527.408 13.4414 527.2 13.1514C526.993 12.8613 526.837 12.5391 526.733 12.1846C526.629 11.8301 526.577 11.4702 526.577 11.105V10.6377C526.577 10.0863 526.633 9.54557 526.744 9.01562C526.855 8.48568 527.046 8.00586 527.318 7.57617C527.594 7.14648 527.976 6.80452 528.462 6.55029C528.949 6.29606 529.571 6.16895 530.326 6.16895ZM532.924 13.4736C532.924 13.3053 532.976 13.1639 533.08 13.0493C533.187 12.9312 533.341 12.8721 533.542 12.8721C533.742 12.8721 533.894 12.9312 533.998 13.0493C534.105 13.1639 534.159 13.3053 534.159 13.4736C534.159 13.6383 534.105 13.778 533.998 13.8926C533.894 14.0072 533.742 14.0645 533.542 14.0645C533.341 14.0645 533.187 14.0072 533.08 13.8926C532.976 13.778 532.924 13.6383 532.924 13.4736ZM540.925 13.1836V14H535.806V13.2856L538.368 10.4336C538.683 10.0827 538.927 9.78548 539.099 9.54199C539.274 9.29492 539.396 9.07471 539.464 8.88135C539.535 8.68441 539.571 8.48389 539.571 8.27979C539.571 8.02197 539.517 7.78923 539.41 7.58154C539.306 7.37028 539.152 7.20199 538.948 7.07666C538.744 6.95133 538.497 6.88867 538.207 6.88867C537.86 6.88867 537.57 6.95671 537.337 7.09277C537.108 7.22526 536.936 7.41146 536.821 7.65137C536.707 7.89128 536.649 8.16699 536.649 8.47852H535.656C535.656 8.03809 535.752 7.63525 535.946 7.27002C536.139 6.90479 536.426 6.61475 536.805 6.3999C537.185 6.18148 537.652 6.07227 538.207 6.07227C538.701 6.07227 539.124 6.15999 539.475 6.33545C539.825 6.50732 540.094 6.75081 540.28 7.06592C540.47 7.37744 540.565 7.74268 540.565 8.16162C540.565 8.39079 540.525 8.62354 540.447 8.85986C540.371 9.09261 540.266 9.32536 540.13 9.55811C539.997 9.79085 539.842 10.02 539.663 10.2456C539.487 10.4712 539.299 10.6932 539.099 10.9116L537.004 13.1836H540.925ZM546.997 9.4668V10.6592C546.997 11.3001 546.94 11.8408 546.825 12.2812C546.711 12.7217 546.546 13.0762 546.331 13.3447C546.117 13.6133 545.857 13.8084 545.553 13.9302C545.252 14.0483 544.912 14.1074 544.532 14.1074C544.231 14.1074 543.954 14.0698 543.7 13.9946C543.445 13.9194 543.216 13.7995 543.012 13.6348C542.811 13.4665 542.64 13.248 542.496 12.9795C542.353 12.7109 542.244 12.3851 542.169 12.002C542.094 11.6188 542.056 11.1712 542.056 10.6592V9.4668C542.056 8.82585 542.113 8.28874 542.228 7.85547C542.346 7.4222 542.513 7.07487 542.727 6.81348C542.942 6.5485 543.2 6.35872 543.501 6.24414C543.805 6.12956 544.145 6.07227 544.521 6.07227C544.826 6.07227 545.105 6.10986 545.359 6.18506C545.617 6.25667 545.846 6.37305 546.047 6.53418C546.247 6.69173 546.417 6.90299 546.557 7.16797C546.7 7.42936 546.809 7.74984 546.885 8.12939C546.96 8.50895 546.997 8.95475 546.997 9.4668ZM545.998 10.8203V9.30029C545.998 8.94938 545.977 8.64144 545.934 8.37646C545.894 8.10791 545.835 7.87874 545.757 7.68896C545.678 7.49919 545.578 7.34521 545.456 7.22705C545.338 7.10889 545.2 7.02295 545.042 6.96924C544.888 6.91195 544.715 6.8833 544.521 6.8833C544.285 6.8833 544.075 6.92806 543.893 7.01758C543.71 7.10352 543.556 7.24137 543.431 7.43115C543.309 7.62093 543.216 7.86979 543.152 8.17773C543.087 8.48568 543.055 8.85986 543.055 9.30029V10.8203C543.055 11.1712 543.075 11.481 543.114 11.7495C543.157 12.0181 543.22 12.2508 543.302 12.4478C543.384 12.6411 543.485 12.8005 543.603 12.9258C543.721 13.0511 543.857 13.1442 544.011 13.2051C544.169 13.2624 544.342 13.291 544.532 13.291C544.776 13.291 544.989 13.2445 545.171 13.1514C545.354 13.0583 545.506 12.9132 545.628 12.7163C545.753 12.5158 545.846 12.2598 545.907 11.9482C545.968 11.6331 545.998 11.2572 545.998 10.8203ZM553.5 13.1836V14H548.381V13.2856L550.943 10.4336C551.258 10.0827 551.502 9.78548 551.674 9.54199C551.849 9.29492 551.971 9.07471 552.039 8.88135C552.11 8.68441 552.146 8.48389 552.146 8.27979C552.146 8.02197 552.092 7.78923 551.985 7.58154C551.881 7.37028 551.727 7.20199 551.523 7.07666C551.319 6.95133 551.072 6.88867 550.782 6.88867C550.435 6.88867 550.145 6.95671 549.912 7.09277C549.683 7.22526 549.511 7.41146 549.396 7.65137C549.282 7.89128 549.224 8.16699 549.224 8.47852H548.231C548.231 8.03809 548.327 7.63525 548.521 7.27002C548.714 6.90479 549.001 6.61475 549.38 6.3999C549.76 6.18148 550.227 6.07227 550.782 6.07227C551.276 6.07227 551.699 6.15999 552.05 6.33545C552.4 6.50732 552.669 6.75081 552.855 7.06592C553.045 7.37744 553.14 7.74268 553.14 8.16162C553.14 8.39079 553.1 8.62354 553.022 8.85986C552.946 9.09261 552.841 9.32536 552.705 9.55811C552.572 9.79085 552.417 10.02 552.237 10.2456C552.062 10.4712 551.874 10.6932 551.674 10.9116L549.579 13.1836H553.5ZM556.113 9.60107H556.822C557.17 9.60107 557.456 9.54378 557.682 9.4292C557.911 9.31104 558.081 9.15169 558.192 8.95117C558.307 8.74707 558.364 8.5179 558.364 8.26367C558.364 7.96289 558.314 7.71045 558.213 7.50635C558.113 7.30225 557.963 7.14827 557.762 7.04443C557.562 6.94059 557.308 6.88867 557 6.88867C556.72 6.88867 556.473 6.94417 556.258 7.05518C556.047 7.1626 555.881 7.31657 555.759 7.51709C555.641 7.71761 555.582 7.95394 555.582 8.22607H554.588C554.588 7.82861 554.688 7.46696 554.889 7.14111C555.089 6.81527 555.37 6.55566 555.732 6.3623C556.097 6.16895 556.52 6.07227 557 6.07227C557.472 6.07227 557.886 6.15641 558.24 6.32471C558.595 6.48942 558.871 6.73649 559.067 7.06592C559.264 7.39176 559.363 7.79818 559.363 8.28516C559.363 8.4821 559.316 8.69336 559.223 8.91895C559.134 9.14095 558.992 9.34863 558.799 9.54199C558.609 9.73535 558.362 9.89469 558.058 10.02C557.753 10.1418 557.388 10.2026 556.962 10.2026H556.113V9.60107ZM556.113 10.4175V9.82129H556.962C557.46 9.82129 557.872 9.88037 558.197 9.99854C558.523 10.1167 558.779 10.2743 558.965 10.4712C559.155 10.6681 559.288 10.8848 559.363 11.1211C559.442 11.3538 559.481 11.5866 559.481 11.8193C559.481 12.1846 559.418 12.5086 559.293 12.7915C559.171 13.0744 558.998 13.3143 558.772 13.5112C558.55 13.7082 558.289 13.8568 557.988 13.957C557.687 14.0573 557.359 14.1074 557.005 14.1074C556.665 14.1074 556.344 14.0591 556.044 13.9624C555.746 13.8657 555.483 13.7261 555.254 13.5435C555.025 13.3573 554.846 13.1299 554.717 12.8613C554.588 12.5892 554.524 12.2795 554.524 11.9321H555.517C555.517 12.2043 555.576 12.4424 555.694 12.6465C555.816 12.8506 555.988 13.0099 556.21 13.1245C556.436 13.2355 556.701 13.291 557.005 13.291C557.309 13.291 557.571 13.2391 557.789 13.1353C558.011 13.0278 558.181 12.8667 558.299 12.6519C558.421 12.437 558.482 12.1667 558.482 11.8408C558.482 11.515 558.414 11.2482 558.278 11.0405C558.142 10.8293 557.949 10.6735 557.698 10.5732C557.451 10.4694 557.159 10.4175 556.822 10.4175H556.113Z" fill="#8BB187"/>
<path d="M634.559 9.4668V10.6592C634.559 11.3001 634.502 11.8408 634.387 12.2812C634.273 12.7217 634.108 13.0762 633.893 13.3447C633.678 13.6133 633.419 13.8084 633.114 13.9302C632.813 14.0483 632.473 14.1074 632.094 14.1074C631.793 14.1074 631.515 14.0698 631.261 13.9946C631.007 13.9194 630.778 13.7995 630.574 13.6348C630.373 13.4665 630.201 13.248 630.058 12.9795C629.915 12.7109 629.806 12.3851 629.73 12.002C629.655 11.6188 629.618 11.1712 629.618 10.6592V9.4668C629.618 8.82585 629.675 8.28874 629.79 7.85547C629.908 7.4222 630.074 7.07487 630.289 6.81348C630.504 6.5485 630.762 6.35872 631.062 6.24414C631.367 6.12956 631.707 6.07227 632.083 6.07227C632.387 6.07227 632.667 6.10986 632.921 6.18506C633.179 6.25667 633.408 6.37305 633.608 6.53418C633.809 6.69173 633.979 6.90299 634.119 7.16797C634.262 7.42936 634.371 7.74984 634.446 8.12939C634.521 8.50895 634.559 8.95475 634.559 9.4668ZM633.56 10.8203V9.30029C633.56 8.94938 633.539 8.64144 633.496 8.37646C633.456 8.10791 633.397 7.87874 633.318 7.68896C633.24 7.49919 633.139 7.34521 633.018 7.22705C632.899 7.10889 632.762 7.02295 632.604 6.96924C632.45 6.91195 632.276 6.8833 632.083 6.8833C631.847 6.8833 631.637 6.92806 631.455 7.01758C631.272 7.10352 631.118 7.24137 630.993 7.43115C630.871 7.62093 630.778 7.86979 630.713 8.17773C630.649 8.48568 630.617 8.85986 630.617 9.30029V10.8203C630.617 11.1712 630.636 11.481 630.676 11.7495C630.719 12.0181 630.781 12.2508 630.864 12.4478C630.946 12.6411 631.046 12.8005 631.165 12.9258C631.283 13.0511 631.419 13.1442 631.573 13.2051C631.73 13.2624 631.904 13.291 632.094 13.291C632.337 13.291 632.55 13.2445 632.733 13.1514C632.916 13.0583 633.068 12.9132 633.189 12.7163C633.315 12.5158 633.408 12.2598 633.469 11.9482C633.53 11.6331 633.56 11.2572 633.56 10.8203ZM639.203 6.13672V14H638.209V7.37744L636.206 8.10791V7.21094L639.047 6.13672H639.203ZM642.348 13.4736C642.348 13.3053 642.4 13.1639 642.504 13.0493C642.612 12.9312 642.766 12.8721 642.966 12.8721C643.167 12.8721 643.319 12.9312 643.423 13.0493C643.53 13.1639 643.584 13.3053 643.584 13.4736C643.584 13.6383 643.53 13.778 643.423 13.8926C643.319 14.0072 643.167 14.0645 642.966 14.0645C642.766 14.0645 642.612 14.0072 642.504 13.8926C642.4 13.778 642.348 13.6383 642.348 13.4736ZM650.134 9.4668V10.6592C650.134 11.3001 650.077 11.8408 649.963 12.2812C649.848 12.7217 649.683 13.0762 649.468 13.3447C649.254 13.6133 648.994 13.8084 648.69 13.9302C648.389 14.0483 648.049 14.1074 647.669 14.1074C647.368 14.1074 647.091 14.0698 646.837 13.9946C646.582 13.9194 646.353 13.7995 646.149 13.6348C645.949 13.4665 645.777 13.248 645.633 12.9795C645.49 12.7109 645.381 12.3851 645.306 12.002C645.231 11.6188 645.193 11.1712 645.193 10.6592V9.4668C645.193 8.82585 645.25 8.28874 645.365 7.85547C645.483 7.4222 645.65 7.07487 645.864 6.81348C646.079 6.5485 646.337 6.35872 646.638 6.24414C646.942 6.12956 647.282 6.07227 647.658 6.07227C647.963 6.07227 648.242 6.10986 648.496 6.18506C648.754 6.25667 648.983 6.37305 649.184 6.53418C649.384 6.69173 649.554 6.90299 649.694 7.16797C649.837 7.42936 649.946 7.74984 650.022 8.12939C650.097 8.50895 650.134 8.95475 650.134 9.4668ZM649.135 10.8203V9.30029C649.135 8.94938 649.114 8.64144 649.071 8.37646C649.032 8.10791 648.973 7.87874 648.894 7.68896C648.815 7.49919 648.715 7.34521 648.593 7.22705C648.475 7.10889 648.337 7.02295 648.179 6.96924C648.025 6.91195 647.852 6.8833 647.658 6.8833C647.422 6.8833 647.213 6.92806 647.03 7.01758C646.847 7.10352 646.693 7.24137 646.568 7.43115C646.446 7.62093 646.353 7.86979 646.289 8.17773C646.224 8.48568 646.192 8.85986 646.192 9.30029V10.8203C646.192 11.1712 646.212 11.481 646.251 11.7495C646.294 12.0181 646.357 12.2508 646.439 12.4478C646.522 12.6411 646.622 12.8005 646.74 12.9258C646.858 13.0511 646.994 13.1442 647.148 13.2051C647.306 13.2624 647.479 13.291 647.669 13.291C647.913 13.291 648.126 13.2445 648.308 13.1514C648.491 13.0583 648.643 12.9132 648.765 12.7163C648.89 12.5158 648.983 12.2598 649.044 11.9482C649.105 11.6331 649.135 11.2572 649.135 10.8203ZM656.567 6.17969V6.73828L653.328 14H652.281L655.514 6.99609H651.282V6.17969H656.567ZM657.924 13.4736C657.924 13.3053 657.976 13.1639 658.08 13.0493C658.187 12.9312 658.341 12.8721 658.542 12.8721C658.742 12.8721 658.894 12.9312 658.998 13.0493C659.105 13.1639 659.159 13.3053 659.159 13.4736C659.159 13.6383 659.105 13.778 658.998 13.8926C658.894 14.0072 658.742 14.0645 658.542 14.0645C658.341 14.0645 658.187 14.0072 658.08 13.8926C657.976 13.778 657.924 13.6383 657.924 13.4736ZM665.925 13.1836V14H660.806V13.2856L663.368 10.4336C663.683 10.0827 663.927 9.78548 664.099 9.54199C664.274 9.29492 664.396 9.07471 664.464 8.88135C664.535 8.68441 664.571 8.48389 664.571 8.27979C664.571 8.02197 664.517 7.78923 664.41 7.58154C664.306 7.37028 664.152 7.20199 663.948 7.07666C663.744 6.95133 663.497 6.88867 663.207 6.88867C662.86 6.88867 662.57 6.95671 662.337 7.09277C662.108 7.22526 661.936 7.41146 661.821 7.65137C661.707 7.89128 661.649 8.16699 661.649 8.47852H660.656C660.656 8.03809 660.752 7.63525 660.946 7.27002C661.139 6.90479 661.426 6.61475 661.805 6.3999C662.185 6.18148 662.652 6.07227 663.207 6.07227C663.701 6.07227 664.124 6.15999 664.475 6.33545C664.825 6.50732 665.094 6.75081 665.28 7.06592C665.47 7.37744 665.565 7.74268 665.565 8.16162C665.565 8.39079 665.525 8.62354 665.447 8.85986C665.371 9.09261 665.266 9.32536 665.13 9.55811C664.997 9.79085 664.842 10.02 664.663 10.2456C664.487 10.4712 664.299 10.6932 664.099 10.9116L662.004 13.1836H665.925ZM671.997 9.4668V10.6592C671.997 11.3001 671.94 11.8408 671.825 12.2812C671.711 12.7217 671.546 13.0762 671.331 13.3447C671.117 13.6133 670.857 13.8084 670.553 13.9302C670.252 14.0483 669.912 14.1074 669.532 14.1074C669.231 14.1074 668.954 14.0698 668.7 13.9946C668.445 13.9194 668.216 13.7995 668.012 13.6348C667.811 13.4665 667.64 13.248 667.496 12.9795C667.353 12.7109 667.244 12.3851 667.169 12.002C667.094 11.6188 667.056 11.1712 667.056 10.6592V9.4668C667.056 8.82585 667.113 8.28874 667.228 7.85547C667.346 7.4222 667.513 7.07487 667.727 6.81348C667.942 6.5485 668.2 6.35872 668.501 6.24414C668.805 6.12956 669.145 6.07227 669.521 6.07227C669.826 6.07227 670.105 6.10986 670.359 6.18506C670.617 6.25667 670.846 6.37305 671.047 6.53418C671.247 6.69173 671.417 6.90299 671.557 7.16797C671.7 7.42936 671.809 7.74984 671.885 8.12939C671.96 8.50895 671.997 8.95475 671.997 9.4668ZM670.998 10.8203V9.30029C670.998 8.94938 670.977 8.64144 670.934 8.37646C670.894 8.10791 670.835 7.87874 670.757 7.68896C670.678 7.49919 670.578 7.34521 670.456 7.22705C670.338 7.10889 670.2 7.02295 670.042 6.96924C669.888 6.91195 669.715 6.8833 669.521 6.8833C669.285 6.8833 669.075 6.92806 668.893 7.01758C668.71 7.10352 668.556 7.24137 668.431 7.43115C668.309 7.62093 668.216 7.86979 668.152 8.17773C668.087 8.48568 668.055 8.85986 668.055 9.30029V10.8203C668.055 11.1712 668.075 11.481 668.114 11.7495C668.157 12.0181 668.22 12.2508 668.302 12.4478C668.384 12.6411 668.485 12.8005 668.603 12.9258C668.721 13.0511 668.857 13.1442 669.011 13.2051C669.169 13.2624 669.342 13.291 669.532 13.291C669.776 13.291 669.989 13.2445 670.171 13.1514C670.354 13.0583 670.506 12.9132 670.628 12.7163C670.753 12.5158 670.846 12.2598 670.907 11.9482C670.968 11.6331 670.998 11.2572 670.998 10.8203ZM678.5 13.1836V14H673.381V13.2856L675.943 10.4336C676.258 10.0827 676.502 9.78548 676.674 9.54199C676.849 9.29492 676.971 9.07471 677.039 8.88135C677.11 8.68441 677.146 8.48389 677.146 8.27979C677.146 8.02197 677.092 7.78923 676.985 7.58154C676.881 7.37028 676.727 7.20199 676.523 7.07666C676.319 6.95133 676.072 6.88867 675.782 6.88867C675.435 6.88867 675.145 6.95671 674.912 7.09277C674.683 7.22526 674.511 7.41146 674.396 7.65137C674.282 7.89128 674.224 8.16699 674.224 8.47852H673.231C673.231 8.03809 673.327 7.63525 673.521 7.27002C673.714 6.90479 674.001 6.61475 674.38 6.3999C674.76 6.18148 675.227 6.07227 675.782 6.07227C676.276 6.07227 676.699 6.15999 677.05 6.33545C677.4 6.50732 677.669 6.75081 677.855 7.06592C678.045 7.37744 678.14 7.74268 678.14 8.16162C678.14 8.39079 678.1 8.62354 678.022 8.85986C677.946 9.09261 677.841 9.32536 677.705 9.55811C677.572 9.79085 677.417 10.02 677.237 10.2456C677.062 10.4712 676.874 10.6932 676.674 10.9116L674.579 13.1836H678.5ZM681.113 9.60107H681.822C682.17 9.60107 682.456 9.54378 682.682 9.4292C682.911 9.31104 683.081 9.15169 683.192 8.95117C683.307 8.74707 683.364 8.5179 683.364 8.26367C683.364 7.96289 683.314 7.71045 683.213 7.50635C683.113 7.30225 682.963 7.14827 682.762 7.04443C682.562 6.94059 682.308 6.88867 682 6.88867C681.72 6.88867 681.473 6.94417 681.258 7.05518C681.047 7.1626 680.881 7.31657 680.759 7.51709C680.641 7.71761 680.582 7.95394 680.582 8.22607H679.588C679.588 7.82861 679.688 7.46696 679.889 7.14111C680.089 6.81527 680.37 6.55566 680.732 6.3623C681.097 6.16895 681.52 6.07227 682 6.07227C682.472 6.07227 682.886 6.15641 683.24 6.32471C683.595 6.48942 683.871 6.73649 684.067 7.06592C684.264 7.39176 684.363 7.79818 684.363 8.28516C684.363 8.4821 684.316 8.69336 684.223 8.91895C684.134 9.14095 683.992 9.34863 683.799 9.54199C683.609 9.73535 683.362 9.89469 683.058 10.02C682.753 10.1418 682.388 10.2026 681.962 10.2026H681.113V9.60107ZM681.113 10.4175V9.82129H681.962C682.46 9.82129 682.872 9.88037 683.197 9.99854C683.523 10.1167 683.779 10.2743 683.965 10.4712C684.155 10.6681 684.288 10.8848 684.363 11.1211C684.442 11.3538 684.481 11.5866 684.481 11.8193C684.481 12.1846 684.418 12.5086 684.293 12.7915C684.171 13.0744 683.998 13.3143 683.772 13.5112C683.55 13.7082 683.289 13.8568 682.988 13.957C682.687 14.0573 682.359 14.1074 682.005 14.1074C681.665 14.1074 681.344 14.0591 681.044 13.9624C680.746 13.8657 680.483 13.7261 680.254 13.5435C680.025 13.3573 679.846 13.1299 679.717 12.8613C679.588 12.5892 679.524 12.2795 679.524 11.9321H680.517C680.517 12.2043 680.576 12.4424 680.694 12.6465C680.816 12.8506 680.988 13.0099 681.21 13.1245C681.436 13.2355 681.701 13.291 682.005 13.291C682.309 13.291 682.571 13.2391 682.789 13.1353C683.011 13.0278 683.181 12.8667 683.299 12.6519C683.421 12.437 683.482 12.1667 683.482 11.8408C683.482 11.515 683.414 11.2482 683.278 11.0405C683.142 10.8293 682.949 10.6735 682.698 10.5732C682.451 10.4694 682.159 10.4175 681.822 10.4175H681.113Z" fill="#8BB187"/>
<path d="M759.559 9.4668V10.6592C759.559 11.3001 759.502 11.8408 759.387 12.2812C759.273 12.7217 759.108 13.0762 758.893 13.3447C758.678 13.6133 758.419 13.8084 758.114 13.9302C757.813 14.0483 757.473 14.1074 757.094 14.1074C756.793 14.1074 756.515 14.0698 756.261 13.9946C756.007 13.9194 755.778 13.7995 755.574 13.6348C755.373 13.4665 755.201 13.248 755.058 12.9795C754.915 12.7109 754.806 12.3851 754.73 12.002C754.655 11.6188 754.618 11.1712 754.618 10.6592V9.4668C754.618 8.82585 754.675 8.28874 754.79 7.85547C754.908 7.4222 755.074 7.07487 755.289 6.81348C755.504 6.5485 755.762 6.35872 756.062 6.24414C756.367 6.12956 756.707 6.07227 757.083 6.07227C757.387 6.07227 757.667 6.10986 757.921 6.18506C758.179 6.25667 758.408 6.37305 758.608 6.53418C758.809 6.69173 758.979 6.90299 759.119 7.16797C759.262 7.42936 759.371 7.74984 759.446 8.12939C759.521 8.50895 759.559 8.95475 759.559 9.4668ZM758.56 10.8203V9.30029C758.56 8.94938 758.539 8.64144 758.496 8.37646C758.456 8.10791 758.397 7.87874 758.318 7.68896C758.24 7.49919 758.139 7.34521 758.018 7.22705C757.899 7.10889 757.762 7.02295 757.604 6.96924C757.45 6.91195 757.276 6.8833 757.083 6.8833C756.847 6.8833 756.637 6.92806 756.455 7.01758C756.272 7.10352 756.118 7.24137 755.993 7.43115C755.871 7.62093 755.778 7.86979 755.713 8.17773C755.649 8.48568 755.617 8.85986 755.617 9.30029V10.8203C755.617 11.1712 755.636 11.481 755.676 11.7495C755.719 12.0181 755.781 12.2508 755.864 12.4478C755.946 12.6411 756.046 12.8005 756.165 12.9258C756.283 13.0511 756.419 13.1442 756.573 13.2051C756.73 13.2624 756.904 13.291 757.094 13.291C757.337 13.291 757.55 13.2445 757.733 13.1514C757.916 13.0583 758.068 12.9132 758.189 12.7163C758.315 12.5158 758.408 12.2598 758.469 11.9482C758.53 11.6331 758.56 11.2572 758.56 10.8203ZM766.061 13.1836V14H760.943V13.2856L763.505 10.4336C763.82 10.0827 764.063 9.78548 764.235 9.54199C764.411 9.29492 764.532 9.07471 764.6 8.88135C764.672 8.68441 764.708 8.48389 764.708 8.27979C764.708 8.02197 764.654 7.78923 764.547 7.58154C764.443 7.37028 764.289 7.20199 764.085 7.07666C763.881 6.95133 763.634 6.88867 763.344 6.88867C762.996 6.88867 762.706 6.95671 762.474 7.09277C762.244 7.22526 762.072 7.41146 761.958 7.65137C761.843 7.89128 761.786 8.16699 761.786 8.47852H760.792C760.792 8.03809 760.889 7.63525 761.082 7.27002C761.276 6.90479 761.562 6.61475 761.942 6.3999C762.321 6.18148 762.789 6.07227 763.344 6.07227C763.838 6.07227 764.26 6.15999 764.611 6.33545C764.962 6.50732 765.231 6.75081 765.417 7.06592C765.607 7.37744 765.702 7.74268 765.702 8.16162C765.702 8.39079 765.662 8.62354 765.583 8.85986C765.508 9.09261 765.403 9.32536 765.267 9.55811C765.134 9.79085 764.978 10.02 764.799 10.2456C764.624 10.4712 764.436 10.6932 764.235 10.9116L762.141 13.1836H766.061ZM767.348 13.4736C767.348 13.3053 767.4 13.1639 767.504 13.0493C767.612 12.9312 767.766 12.8721 767.966 12.8721C768.167 12.8721 768.319 12.9312 768.423 13.0493C768.53 13.1639 768.584 13.3053 768.584 13.4736C768.584 13.6383 768.53 13.778 768.423 13.8926C768.319 14.0072 768.167 14.0645 767.966 14.0645C767.766 14.0645 767.612 14.0072 767.504 13.8926C767.4 13.778 767.348 13.6383 767.348 13.4736ZM775.134 9.4668V10.6592C775.134 11.3001 775.077 11.8408 774.963 12.2812C774.848 12.7217 774.683 13.0762 774.468 13.3447C774.254 13.6133 773.994 13.8084 773.69 13.9302C773.389 14.0483 773.049 14.1074 772.669 14.1074C772.368 14.1074 772.091 14.0698 771.837 13.9946C771.582 13.9194 771.353 13.7995 771.149 13.6348C770.949 13.4665 770.777 13.248 770.633 12.9795C770.49 12.7109 770.381 12.3851 770.306 12.002C770.231 11.6188 770.193 11.1712 770.193 10.6592V9.4668C770.193 8.82585 770.25 8.28874 770.365 7.85547C770.483 7.4222 770.65 7.07487 770.864 6.81348C771.079 6.5485 771.337 6.35872 771.638 6.24414C771.942 6.12956 772.282 6.07227 772.658 6.07227C772.963 6.07227 773.242 6.10986 773.496 6.18506C773.754 6.25667 773.983 6.37305 774.184 6.53418C774.384 6.69173 774.554 6.90299 774.694 7.16797C774.837 7.42936 774.946 7.74984 775.022 8.12939C775.097 8.50895 775.134 8.95475 775.134 9.4668ZM774.135 10.8203V9.30029C774.135 8.94938 774.114 8.64144 774.071 8.37646C774.032 8.10791 773.973 7.87874 773.894 7.68896C773.815 7.49919 773.715 7.34521 773.593 7.22705C773.475 7.10889 773.337 7.02295 773.179 6.96924C773.025 6.91195 772.852 6.8833 772.658 6.8833C772.422 6.8833 772.213 6.92806 772.03 7.01758C771.847 7.10352 771.693 7.24137 771.568 7.43115C771.446 7.62093 771.353 7.86979 771.289 8.17773C771.224 8.48568 771.192 8.85986 771.192 9.30029V10.8203C771.192 11.1712 771.212 11.481 771.251 11.7495C771.294 12.0181 771.357 12.2508 771.439 12.4478C771.522 12.6411 771.622 12.8005 771.74 12.9258C771.858 13.0511 771.994 13.1442 772.148 13.2051C772.306 13.2624 772.479 13.291 772.669 13.291C772.913 13.291 773.126 13.2445 773.308 13.1514C773.491 13.0583 773.643 12.9132 773.765 12.7163C773.89 12.5158 773.983 12.2598 774.044 11.9482C774.105 11.6331 774.135 11.2572 774.135 10.8203ZM781.567 6.17969V6.73828L778.328 14H777.281L780.514 6.99609H776.282V6.17969H781.567ZM782.924 13.4736C782.924 13.3053 782.976 13.1639 783.08 13.0493C783.187 12.9312 783.341 12.8721 783.542 12.8721C783.742 12.8721 783.894 12.9312 783.998 13.0493C784.105 13.1639 784.159 13.3053 784.159 13.4736C784.159 13.6383 784.105 13.778 783.998 13.8926C783.894 14.0072 783.742 14.0645 783.542 14.0645C783.341 14.0645 783.187 14.0072 783.08 13.8926C782.976 13.778 782.924 13.6383 782.924 13.4736ZM790.925 13.1836V14H785.806V13.2856L788.368 10.4336C788.683 10.0827 788.927 9.78548 789.099 9.54199C789.274 9.29492 789.396 9.07471 789.464 8.88135C789.535 8.68441 789.571 8.48389 789.571 8.27979C789.571 8.02197 789.517 7.78923 789.41 7.58154C789.306 7.37028 789.152 7.20199 788.948 7.07666C788.744 6.95133 788.497 6.88867 788.207 6.88867C787.86 6.88867 787.57 6.95671 787.337 7.09277C787.108 7.22526 786.936 7.41146 786.821 7.65137C786.707 7.89128 786.649 8.16699 786.649 8.47852H785.656C785.656 8.03809 785.752 7.63525 785.946 7.27002C786.139 6.90479 786.426 6.61475 786.805 6.3999C787.185 6.18148 787.652 6.07227 788.207 6.07227C788.701 6.07227 789.124 6.15999 789.475 6.33545C789.825 6.50732 790.094 6.75081 790.28 7.06592C790.47 7.37744 790.565 7.74268 790.565 8.16162C790.565 8.39079 790.525 8.62354 790.447 8.85986C790.371 9.09261 790.266 9.32536 790.13 9.55811C789.997 9.79085 789.842 10.02 789.663 10.2456C789.487 10.4712 789.299 10.6932 789.099 10.9116L787.004 13.1836H790.925ZM796.997 9.4668V10.6592C796.997 11.3001 796.94 11.8408 796.825 12.2812C796.711 12.7217 796.546 13.0762 796.331 13.3447C796.117 13.6133 795.857 13.8084 795.553 13.9302C795.252 14.0483 794.912 14.1074 794.532 14.1074C794.231 14.1074 793.954 14.0698 793.7 13.9946C793.445 13.9194 793.216 13.7995 793.012 13.6348C792.811 13.4665 792.64 13.248 792.496 12.9795C792.353 12.7109 792.244 12.3851 792.169 12.002C792.094 11.6188 792.056 11.1712 792.056 10.6592V9.4668C792.056 8.82585 792.113 8.28874 792.228 7.85547C792.346 7.4222 792.513 7.07487 792.727 6.81348C792.942 6.5485 793.2 6.35872 793.501 6.24414C793.805 6.12956 794.145 6.07227 794.521 6.07227C794.826 6.07227 795.105 6.10986 795.359 6.18506C795.617 6.25667 795.846 6.37305 796.047 6.53418C796.247 6.69173 796.417 6.90299 796.557 7.16797C796.7 7.42936 796.809 7.74984 796.885 8.12939C796.96 8.50895 796.997 8.95475 796.997 9.4668ZM795.998 10.8203V9.30029C795.998 8.94938 795.977 8.64144 795.934 8.37646C795.894 8.10791 795.835 7.87874 795.757 7.68896C795.678 7.49919 795.578 7.34521 795.456 7.22705C795.338 7.10889 795.2 7.02295 795.042 6.96924C794.888 6.91195 794.715 6.8833 794.521 6.8833C794.285 6.8833 794.075 6.92806 793.893 7.01758C793.71 7.10352 793.556 7.24137 793.431 7.43115C793.309 7.62093 793.216 7.86979 793.152 8.17773C793.087 8.48568 793.055 8.85986 793.055 9.30029V10.8203C793.055 11.1712 793.075 11.481 793.114 11.7495C793.157 12.0181 793.22 12.2508 793.302 12.4478C793.384 12.6411 793.485 12.8005 793.603 12.9258C793.721 13.0511 793.857 13.1442 794.011 13.2051C794.169 13.2624 794.342 13.291 794.532 13.291C794.776 13.291 794.989 13.2445 795.171 13.1514C795.354 13.0583 795.506 12.9132 795.628 12.7163C795.753 12.5158 795.846 12.2598 795.907 11.9482C795.968 11.6331 795.998 11.2572 795.998 10.8203ZM803.5 13.1836V14H798.381V13.2856L800.943 10.4336C801.258 10.0827 801.502 9.78548 801.674 9.54199C801.849 9.29492 801.971 9.07471 802.039 8.88135C802.11 8.68441 802.146 8.48389 802.146 8.27979C802.146 8.02197 802.092 7.78923 801.985 7.58154C801.881 7.37028 801.727 7.20199 801.523 7.07666C801.319 6.95133 801.072 6.88867 800.782 6.88867C800.435 6.88867 800.145 6.95671 799.912 7.09277C799.683 7.22526 799.511 7.41146 799.396 7.65137C799.282 7.89128 799.224 8.16699 799.224 8.47852H798.231C798.231 8.03809 798.327 7.63525 798.521 7.27002C798.714 6.90479 799.001 6.61475 799.38 6.3999C799.76 6.18148 800.227 6.07227 800.782 6.07227C801.276 6.07227 801.699 6.15999 802.05 6.33545C802.4 6.50732 802.669 6.75081 802.855 7.06592C803.045 7.37744 803.14 7.74268 803.14 8.16162C803.14 8.39079 803.1 8.62354 803.022 8.85986C802.946 9.09261 802.841 9.32536 802.705 9.55811C802.572 9.79085 802.417 10.02 802.237 10.2456C802.062 10.4712 801.874 10.6932 801.674 10.9116L799.579 13.1836H803.5ZM806.113 9.60107H806.822C807.17 9.60107 807.456 9.54378 807.682 9.4292C807.911 9.31104 808.081 9.15169 808.192 8.95117C808.307 8.74707 808.364 8.5179 808.364 8.26367C808.364 7.96289 808.314 7.71045 808.213 7.50635C808.113 7.30225 807.963 7.14827 807.762 7.04443C807.562 6.94059 807.308 6.88867 807 6.88867C806.72 6.88867 806.473 6.94417 806.258 7.05518C806.047 7.1626 805.881 7.31657 805.759 7.51709C805.641 7.71761 805.582 7.95394 805.582 8.22607H804.588C804.588 7.82861 804.688 7.46696 804.889 7.14111C805.089 6.81527 805.37 6.55566 805.732 6.3623C806.097 6.16895 806.52 6.07227 807 6.07227C807.472 6.07227 807.886 6.15641 808.24 6.32471C808.595 6.48942 808.871 6.73649 809.067 7.06592C809.264 7.39176 809.363 7.79818 809.363 8.28516C809.363 8.4821 809.316 8.69336 809.223 8.91895C809.134 9.14095 808.992 9.34863 808.799 9.54199C808.609 9.73535 808.362 9.89469 808.058 10.02C807.753 10.1418 807.388 10.2026 806.962 10.2026H806.113V9.60107ZM806.113 10.4175V9.82129H806.962C807.46 9.82129 807.872 9.88037 808.197 9.99854C808.523 10.1167 808.779 10.2743 808.965 10.4712C809.155 10.6681 809.288 10.8848 809.363 11.1211C809.442 11.3538 809.481 11.5866 809.481 11.8193C809.481 12.1846 809.418 12.5086 809.293 12.7915C809.171 13.0744 808.998 13.3143 808.772 13.5112C808.55 13.7082 808.289 13.8568 807.988 13.957C807.687 14.0573 807.359 14.1074 807.005 14.1074C806.665 14.1074 806.344 14.0591 806.044 13.9624C805.746 13.8657 805.483 13.7261 805.254 13.5435C805.025 13.3573 804.846 13.1299 804.717 12.8613C804.588 12.5892 804.524 12.2795 804.524 11.9321H805.517C805.517 12.2043 805.576 12.4424 805.694 12.6465C805.816 12.8506 805.988 13.0099 806.21 13.1245C806.436 13.2355 806.701 13.291 807.005 13.291C807.309 13.291 807.571 13.2391 807.789 13.1353C808.011 13.0278 808.181 12.8667 808.299 12.6519C808.421 12.437 808.482 12.1667 808.482 11.8408C808.482 11.515 808.414 11.2482 808.278 11.0405C808.142 10.8293 807.949 10.6735 807.698 10.5732C807.451 10.4694 807.159 10.4175 806.822 10.4175H806.113Z" fill="#8BB187"/>
</g>
</g>
<defs>
<clipPath id="clip0_945_31819">
<rect width="876" height="482" fill="white"/>
</clipPath>
<clipPath id="clip1_945_31819">
<rect width="876" height="482" fill="white"/>
</clipPath>
</defs>
</svg>
