<svg xmlns="http://www.w3.org/2000/svg" viewBox="0 0 24 24">
<path d="M19,20H5c-0.8,0-1.6-0.3-2.1-0.9C2.3,18.6,2,17.8,2,17V7c0-0.8,0.3-1.6,0.9-2.1C3.4,4.3,4.2,4,5,4h14c0.8,0,1.6,0.3,2.1,0.9C21.7,5.4,22,6.2,22,7v10c0,0.8-0.3,1.6-0.9,2.1S19.8,20,19,20z M5,6C4.7,6,4.5,6.1,4.3,6.3C4.1,6.5,4,6.7,4,7v10c0,0.3,0.1,0.5,0.3,0.7C4.5,17.9,4.7,18,5,18h14c0.3,0,0.5-0.1,0.7-0.3S20,17.3,20,17V7c0-0.3-0.1-0.5-0.3-0.7C19.5,6.1,19.3,6,19,6H5z M12,13.4c-0.7,0-1.3-0.2-1.9-0.7l-3.7-3c-0.4-0.3-0.5-1-0.2-1.4c0.3-0.4,1-0.5,1.4-0.2l3.8,3c0.4,0.3,0.9,0.3,1.3,0l3.8-3c0.4-0.3,1.1-0.3,1.4,0.2s0.3,1.1-0.2,1.4l-3.8,3C13.3,13.2,12.7,13.4,12,13.4z"/>
</svg>
